<?xml version="1.0" encoding="utf-8"?>
<!-- Generator: Adobe Illustrator 24.1.2, SVG Export Plug-In . SVG Version: 6.00 Build 0)  -->
<svg version="1.1" id="Calque_1" xmlns="http://www.w3.org/2000/svg" xmlns:xlink="http://www.w3.org/1999/xlink" x="0px" y="0px"
	 viewBox="0 0 537 537" style="enable-background:new 0 0 537 537;" xml:space="preserve">
<style type="text/css">
	.st0{display:none;}
	.st1{display:inline;fill:#FFFFFF;}
	.st2{fill:#FFFFFF;}
</style>
<g id="Calque_1_1_" class="st0">
	
		<image style="display:inline;overflow:visible;enable-background:new    ;" width="648" height="614" xlink:href="71BCE209.jpeg"  transform="matrix(0.9984 0 0 0.9984 -55.7905 -39.2533)">
	</image>
	<circle class="st1" cx="-327" cy="121.5" r="124.5"/>
</g>
<g id="Calque_2_1_">
	<g>
		<g>
			<g>
				<path class="st2" d="M268.5,537c-71.7,0-139.1-27.9-189.9-78.6C27.9,407.6,0,340.2,0,268.5S27.9,129.4,78.6,78.6
					C129.4,27.9,196.8,0,268.5,0s139.1,27.9,189.9,78.6c50.7,50.7,78.6,118.1,78.6,189.9s-27.9,139.1-78.6,189.9
					C407.6,509.1,340.2,537,268.5,537z M268.5,32C138.1,32,32,138.1,32,268.5S138.1,505,268.5,505S505,398.9,505,268.5
					S398.9,32,268.5,32z"/>
			</g>
			<g>
				<path class="st2" d="M302.3,481.8c-89,0-161.4-72.4-161.4-161.4S213.3,159,302.3,159s161.4,72.4,161.4,161.4
					S391.2,481.8,302.3,481.8z M302.3,183.6c-75.4,0-136.8,61.3-136.8,136.8s61.3,136.8,136.8,136.8S439,395.8,439,320.4
					C439,245,377.7,183.6,302.3,183.6z"/>
			</g>
			<g>
				<path class="st2" d="M323.8,433.3c-45.1,0-81.8-36.7-81.8-81.8s36.7-81.8,81.8-81.8c45.1,0,81.8,36.7,81.8,81.8
					S368.8,433.3,323.8,433.3z M323.8,288.9c-34.5,0-62.6,28.1-62.6,62.6s28.1,62.6,62.6,62.6c34.5,0,62.6-28.1,62.6-62.6
					S358.3,288.9,323.8,288.9z"/>
			</g>
		</g>
	</g>
</g>
</svg>
