<svg xmlns="http://www.w3.org/2000/svg" viewBox="0 0 669.9 669.9"><defs><style>.cls-1{fill:#09080a;}</style></defs><g id="Layer_2" data-name="Layer 2"><g id="Calque_1" data-name="Calque 1"><g id="Calque_2" data-name="Calque 2"><path class="cls-1" d="M335,669.9A335,335,0,0,1,98.05,98.05a335.21,335.21,0,0,1,473.8,0c63.25,63.25,98,147.33,98,236.9s-34.8,173.53-98,236.9A333.1,333.1,0,0,1,335,669.9Zm0-630c-162.67,0-295,132.36-295,295S172.28,630,335,630,630,497.62,630,335,497.62,39.92,335,39.92Z"/><path class="cls-1" d="M377.12,601c-111,0-201.35-90.32-201.35-201.34s90.32-201.35,201.35-201.35S578.46,288.67,578.46,399.7,488,601,377.12,601Zm0-372c-94.07,0-170.66,76.47-170.66,170.66s76.47,170.65,170.66,170.65S547.65,493.76,547.65,399.7,471.18,229,377.12,229Z"/><path class="cls-1" d="M403.94,540.54a102,102,0,1,1,102-102A102.17,102.17,0,0,1,403.94,540.54Zm0-180.14A78.09,78.09,0,1,0,482,438.49,78.21,78.21,0,0,0,403.94,360.4Z"/></g></g></g></svg>