<svg xmlns="http://www.w3.org/2000/svg" viewBox="0 0 1255.32 414.25"><defs><style>.cls-1{fill:#fff;}</style></defs><g id="Layer_2" data-name="Layer 2"><g id="stars_and_space" data-name="stars and space"><path class="cls-1" d="M971.94,109.29c1.4,0,1.4-2.36,0-2.36S970.54,109.29,971.94,109.29Z"/><path class="cls-1" d="M948,27.22c1.4,0,1.4-2.36,0-2.36S946.57,27.22,948,27.22Z"/><path class="cls-1" d="M955.19,146.24c1.4,0,1.4-2.35,0-2.35S953.79,146.24,955.19,146.24Z"/><path class="cls-1" d="M885.81,158.76c1.4,0,1.4-2.36,0-2.36S884.41,158.76,885.81,158.76Z"/><path class="cls-1" d="M834.87,54.41c1.4,0,1.4-2.36,0-2.36S833.47,54.41,834.87,54.41Z"/><path class="cls-1" d="M1055.46,93.69c1.4,0,1.4-2.35,0-2.35S1054.06,93.69,1055.46,93.69Z"/><path class="cls-1" d="M1049.93,2.36c1.39,0,1.4-2.36,0-2.36S1048.53,2.36,1049.93,2.36Z"/><path class="cls-1" d="M622.2,149.33c1.39,0,1.4-2.36,0-2.36S620.8,149.33,622.2,149.33Z"/><path class="cls-1" d="M636.33,171.35c1.4,0,1.4-2.36,0-2.36S634.93,171.35,636.33,171.35Z"/><path class="cls-1" d="M80.38,166.39c1.4,0,1.4-2.36,0-2.36S79,166.39,80.38,166.39Z"/><path class="cls-1" d="M1.05,90.31c1.4,0,1.4-2.36,0-2.36S-.35,90.31,1.05,90.31Z"/><path class="cls-1" d="M235.91,187.16c1.4,0,1.4-2.36,0-2.36S234.51,187.16,235.91,187.16Z"/><path class="cls-1" d="M549.67,177.36c1.39,0,1.4-2.36,0-2.36S548.26,177.36,549.67,177.36Z"/><path class="cls-1" d="M648,102.62c1.4,0,1.4-2.36,0-2.36S646.61,102.62,648,102.62Z"/><path class="cls-1" d="M706.4,100c1.4,0,1.41-2.36,0-2.36S705,100,706.4,100Z"/><path class="cls-1" d="M735.91,147.33c1.4,0,1.4-2.36,0-2.36S734.51,147.33,735.91,147.33Z"/><path class="cls-1" d="M1234.35,190.86c1.4,0,1.4-2.36,0-2.36S1233,190.86,1234.35,190.86Z"/><path class="cls-1" d="M1254.27,208.91c1.4,0,1.4-2.36,0-2.36S1252.87,208.91,1254.27,208.91Z"/><path class="cls-1" d="M1043.8,115.51c1.4,0,1.4-2.36,0-2.36S1042.4,115.51,1043.8,115.51Z"/><path class="cls-1" d="M493.12,296.8c1.39,0,1.4-2.36,0-2.36S491.72,296.8,493.12,296.8Z"/><path class="cls-1" d="M412.59,261.44c1.4,0,1.41-2.36,0-2.36S411.19,261.44,412.59,261.44Z"/><path class="cls-1" d="M332.69,64.58c1.4,0,1.4-2.35,0-2.35S331.29,64.58,332.69,64.58Z"/><path class="cls-1" d="M404,45.23c1.4,0,1.4-2.36,0-2.36S402.59,45.23,404,45.23Z"/><path class="cls-1" d="M352.36,98.62c1.4,0,1.4-2.36,0-2.36S351,98.62,352.36,98.62Z"/><path class="cls-1" d="M272.45,31.89c1.4,0,1.4-2.36,0-2.36S271.05,31.89,272.45,31.89Z"/><path class="cls-1" d="M287.2,37.89c1.4,0,1.4-2.36,0-2.36S285.8,37.89,287.2,37.89Z"/><path class="cls-1" d="M172,172c1.4,0,1.4-2.36,0-2.36S170.55,172,172,172Z"/><path class="cls-1" d="M52.09,189c1.4,0,1.4-2.35,0-2.35S50.69,189,52.09,189Z"/><path class="cls-1" d="M41,222.07c1.4,0,1.4-2.36,0-2.36S39.63,222.07,41,222.07Z"/><path class="cls-1" d="M153.51,366.2c1.4,0,1.4-2.36,0-2.36S152.11,366.2,153.51,366.2Z"/><path class="cls-1" d="M210.68,414.25c1.4,0,1.4-2.36,0-2.36S209.28,414.25,210.68,414.25Z"/><path class="cls-1" d="M127.7,13.87c1.4,0,1.4-2.36,0-2.36S126.3,13.87,127.7,13.87Z"/><path class="cls-1" d="M37.34,65.92c1.4,0,1.4-2.36,0-2.36S35.94,65.92,37.34,65.92Z"/><path class="cls-1" d="M373,311.15c1.4,0,1.4-2.36,0-2.36S371.55,311.15,373,311.15Z"/><path class="cls-1" d="M354.51,341.18c1.4,0,1.4-2.36,0-2.36S353.11,341.18,354.51,341.18Z"/><path class="cls-1" d="M434.72,334s0,0,0,0S434.71,334,434.72,334Z"/><path class="cls-1" d="M470.68,348.19c1.4,0,1.4-2.36,0-2.36S469.28,348.19,470.68,348.19Z"/><path class="cls-1" d="M443.94,327.17c1.4,0,1.4-2.36,0-2.36S442.54,327.17,443.94,327.17Z"/><path class="cls-1" d="M505.72,379.21c1.39,0,1.4-2.35,0-2.35S504.32,379.21,505.72,379.21Z"/><path class="cls-1" d="M709.48,269.11c1.4,0,1.4-2.36,0-2.36S708.08,269.11,709.48,269.11Z"/><path class="cls-1" d="M812.74,131c1.4,0,1.4-2.36,0-2.36S811.34,131,812.74,131Z"/><path class="cls-1" d="M836.71,153c1.4,0,1.4-2.36,0-2.36S835.31,153,836.71,153Z"/></g></g></svg>