<svg xmlns="http://www.w3.org/2000/svg" viewBox="0 0 1028.39 466.47"><defs><style>.cls-1{fill:#6dcaff;}</style></defs><g id="Layer_2" data-name="Layer 2"><g id="stars_and_space" data-name="stars and space"><path class="cls-1" d="M293.8,136.89c.7,0,.7-1.69,0-1.69S293.09,136.89,293.8,136.89Z"/><path class="cls-1" d="M331,209.33c.7,0,.71-1.69,0-1.69S330.32,209.33,331,209.33Z"/><path class="cls-1" d="M559.08,118.84s0,0,0,0S559.07,118.84,559.08,118.84Z"/><path class="cls-1" d="M552.1,179.09s0,0,0,0S552.09,179.09,552.1,179.09Z"/><path class="cls-1" d="M412.48,279.62c.7,0,.7-1.69,0-1.69S411.77,279.62,412.48,279.62Z"/><path class="cls-1" d="M530.69,217.22c.71,0,.71-1.69,0-1.69S530,217.22,530.69,217.22Z"/><path class="cls-1" d="M659.38,163.07c.7,0,.7-1.69,0-1.69S658.67,163.07,659.38,163.07Z"/><path class="cls-1" d="M644,283.57c.7,0,.7-1.69,0-1.69S643.31,283.57,644,283.57Z"/><path class="cls-1" d="M266.34,328.75c.7,0,.7-1.69,0-1.69S265.63,328.75,266.34,328.75Z"/><path class="cls-1" d="M142.77,237.31c.71,0,.71-1.69,0-1.69S142.06,237.31,142.77,237.31Z"/><path class="cls-1" d="M102.28,327.68c.7,0,.71-1.69,0-1.69S101.57,327.68,102.28,327.68Z"/><path class="cls-1" d="M93.9,103.9c.71,0,.71-1.69,0-1.69S93.19,103.9,93.9,103.9Z"/><path class="cls-1" d="M394.09,63c.71,0,.71-1.69,0-1.69S393.39,63,394.09,63Z"/><path class="cls-1" d="M422,119c.7,0,.7-1.69,0-1.69S421.31,119,422,119Z"/><path class="cls-1" d="M459,72.7c.7,0,.7-1.69,0-1.69S458.31,72.7,459,72.7Z"/><path class="cls-1" d="M479.26,98.52c.71,0,.71-1.69,0-1.69S478.56,98.52,479.26,98.52Z"/><path class="cls-1" d="M609.11,38.27c.71,0,.71-1.69,0-1.69S608.41,38.27,609.11,38.27Z"/><path class="cls-1" d="M753.62,30.74c.71,0,.71-1.69,0-1.69S752.92,30.74,753.62,30.74Z"/><path class="cls-1" d="M769.68,126.73s0,0,0,0S769.67,126.73,769.68,126.73Z"/><path class="cls-1" d="M759.21,275c.7,0,.7-1.69,0-1.69S758.5,275,759.21,275Z"/><path class="cls-1" d="M597.94,332c.71,0,.71-1.69,0-1.69S597.24,332,597.94,332Z"/><path class="cls-1" d="M480.66,410.52c.7,0,.71-1.69,0-1.69S480,410.52,480.66,410.52Z"/><path class="cls-1" d="M459.71,466.47c.71,0,.71-1.7,0-1.7S459,466.47,459.71,466.47Z"/><path class="cls-1" d="M313.11,451.4c.71,0,.71-1.69,0-1.69S312.4,451.4,313.11,451.4Z"/><path class="cls-1" d="M217.47,366.41c.7,0,.71-1.69,0-1.69S216.76,366.41,217.47,366.41Z"/><path class="cls-1" d="M249.58,183.51c.71,0,.71-1.69,0-1.69S248.87,183.51,249.58,183.51Z"/><path class="cls-1" d="M76.45,224.39c.7,0,.71-1.69,0-1.69S75.74,224.39,76.45,224.39Z"/><path class="cls-1" d="M34.56,148c.71,0,.71-1.69,0-1.69S33.85,148,34.56,148Z"/><path class="cls-1" d="M38.05,58.71c.71,0,.71-1.69,0-1.69S37.35,58.71,38.05,58.71Z"/><path class="cls-1" d="M131.6,2.77c.71,0,.71-1.69,0-1.69S130.89,2.77,131.6,2.77Z"/><path class="cls-1" d="M99.49,57.64c.7,0,.7-1.69,0-1.69S98.78,57.64,99.49,57.64Z"/><path class="cls-1" d="M110.66,81.3c.7,0,.7-1.69,0-1.69S110,81.3,110.66,81.3Z"/><path class="cls-1" d="M101.58,110.35c.71,0,.71-1.69,0-1.69S100.87,110.35,101.58,110.35Z"/><path class="cls-1" d="M86.22,94.21c.71,0,.71-1.69,0-1.69S85.52,94.21,86.22,94.21Z"/><path class="cls-1" d="M82.73,146.93c.71,0,.71-1.69,0-1.69S82,146.93,82.73,146.93Z"/><path class="cls-1" d="M109.26,138.33c.71,0,.71-1.69,0-1.69S108.55,138.33,109.26,138.33Z"/><path class="cls-1" d="M49.22,291.34s0,0,0,0Z"/><path class="cls-1" d="M29.67,389c.71,0,.71-1.69,0-1.69S29,389,29.67,389Z"/><path class="cls-1" d="M79.94,404.06c.7,0,.71-1.69,0-1.69S79.23,404.06,79.94,404.06Z"/><path class="cls-1" d="M66.67,354.57c.71,0,.71-1.69,0-1.69S66,354.57,66.67,354.57Z"/><path class="cls-1" d="M183.26,393.31c.71,0,.71-1.69,0-1.69S182.55,393.31,183.26,393.31Z"/><path class="cls-1" d="M207.69,457.86c.71,0,.71-1.69,0-1.69S207,457.86,207.69,457.86Z"/><path class="cls-1" d="M305.43,450.33c.71,0,.71-1.69,0-1.69S304.72,450.33,305.43,450.33Z"/><path class="cls-1" d="M294.26,379.56s0,0,0,0Z"/><path class="cls-1" d="M354.3,421.28c.7,0,.71-1.69,0-1.69S353.59,421.28,354.3,421.28Z"/><path class="cls-1" d="M513.39,449.88c.7,0,.7-1.69,0-1.69S512.68,449.88,513.39,449.88Z"/><path class="cls-1" d="M397.58,395.46c.71,0,.71-1.69,0-1.69S396.88,395.46,397.58,395.46Z"/><path class="cls-1" d="M345.92,236.23c.71,0,.71-1.69,0-1.69S345.21,236.23,345.92,236.23Z"/><path class="cls-1" d="M396.19,179.21c.7,0,.7-1.69,0-1.69S395.48,179.21,396.19,179.21Z"/><path class="cls-1" d="M343.83,68.39c.7,0,.7-1.69,0-1.69S343.12,68.39,343.83,68.39Z"/><path class="cls-1" d="M274.71,29.66c.71,0,.71-1.69,0-1.69S274,29.66,274.71,29.66Z"/><path class="cls-1" d="M223.05,85.61c.71,0,.71-1.69,0-1.69S222.35,85.61,223.05,85.61Z"/><path class="cls-1" d="M218.17,155.54c.7,0,.7-1.69,0-1.69S217.46,155.54,218.17,155.54Z"/><path class="cls-1" d="M197.92,121.11c.71,0,.71-1.69,0-1.69S197.21,121.11,197.92,121.11Z"/><path class="cls-1" d="M588.87,124.34c.7,0,.7-1.69,0-1.69S588.16,124.34,588.87,124.34Z"/><path class="cls-1" d="M598.64,194.27c.71,0,.71-1.69,0-1.69S597.93,194.27,598.64,194.27Z"/><path class="cls-1" d="M567.23,258.82c.7,0,.7-1.69,0-1.69S566.52,258.82,567.23,258.82Z"/><path class="cls-1" d="M498.81,248.06c.71,0,.71-1.69,0-1.69S498.1,248.06,498.81,248.06Z"/><path class="cls-1" d="M488.34,170.6c.7,0,.7-1.69,0-1.69S487.63,170.6,488.34,170.6Z"/><path class="cls-1" d="M535.11,107.13c.71,0,.71-1.69,0-1.69S534.4,107.13,535.11,107.13Z"/><path class="cls-1" d="M550.47,56.56c.71,0,.71-1.69,0-1.69S549.76,56.56,550.47,56.56Z"/><path class="cls-1" d="M655.89,75.93c.7,0,.7-1.7,0-1.7S655.18,75.93,655.89,75.93Z"/><path class="cls-1" d="M635.64,160.92c.71,0,.71-1.69,0-1.69S634.93,160.92,635.64,160.92Z"/><path class="cls-1" d="M664.26,110.35c.71,0,.71-1.69,0-1.69S663.56,110.35,664.26,110.35Z"/><path class="cls-1" d="M693.58,37.19c.71,0,.71-1.69,0-1.69S692.88,37.19,693.58,37.19Z"/><path class="cls-1" d="M736.17,94.21c.71,0,.71-1.69,0-1.69S735.46,94.21,736.17,94.21Z"/><path class="cls-1" d="M714.53,150.16c.7,0,.7-1.69,0-1.69S713.82,150.16,714.53,150.16Z"/><path class="cls-1" d="M704.75,254.52c.71,0,.71-1.69,0-1.69S704.05,254.52,704.75,254.52Z"/><path class="cls-1" d="M754.32,320.15c.71,0,.71-1.69,0-1.69S753.61,320.15,754.32,320.15Z"/><path class="cls-1" d="M799,295.4c.71,0,.71-1.69,0-1.69S798.29,295.4,799,295.4Z"/><path class="cls-1" d="M808.77,172.75c.71,0,.71-1.69,0-1.69S808.07,172.75,808.77,172.75Z"/><path class="cls-1" d="M769.68,217.94c.7,0,.71-1.69,0-1.69S769,217.94,769.68,217.94Z"/><path class="cls-1" d="M752.23,179.21c.7,0,.7-1.69,0-1.69S751.52,179.21,752.23,179.21Z"/><path class="cls-1" d="M781.55,143.7c.7,0,.7-1.69,0-1.69S780.84,143.7,781.55,143.7Z"/><path class="cls-1" d="M815.75,21.06c.71,0,.71-1.69,0-1.69S815.05,21.06,815.75,21.06Z"/><path class="cls-1" d="M824.13,94.45s0,0,0,0Z"/><path class="cls-1" d="M711.74,333.06c.7,0,.7-1.69,0-1.69S711,333.06,711.74,333.06Z"/><path class="cls-1" d="M648.21,403c.7,0,.7-1.69,0-1.69S647.5,403,648.21,403Z"/><path class="cls-1" d="M651.7,443.87c.7,0,.7-1.69,0-1.69S651,443.87,651.7,443.87Z"/><path class="cls-1" d="M695.68,421.52v0S695.67,421.52,695.68,421.52Z"/><path class="cls-1" d="M607.72,443.87c.7,0,.7-1.69,0-1.69S607,443.87,607.72,443.87Z"/><path class="cls-1" d="M517,351.35c.71,0,.71-1.69,0-1.69S516.25,351.35,517,351.35Z"/><path class="cls-1" d="M455.53,294.33c.7,0,.7-1.69,0-1.69S454.82,294.33,455.53,294.33Z"/><path class="cls-1" d="M356.39,311.54c.71,0,.71-1.69,0-1.69S355.69,311.54,356.39,311.54Z"/><path class="cls-1" d="M314.51,259.9c.7,0,.7-1.69,0-1.69S313.8,259.9,314.51,259.9Z"/><path class="cls-1" d="M336.85,347c.7,0,.7-1.69,0-1.69S336.14,347,336.85,347Z"/><path class="cls-1" d="M339.64,299.71c.7,0,.71-1.69,0-1.69S338.93,299.71,339.64,299.71Z"/><path class="cls-1" d="M287.28,420.2c.71,0,.71-1.69,0-1.69S286.57,420.2,287.28,420.2Z"/><path class="cls-1" d="M318,414.82c.7,0,.7-1.69,0-1.69S317.29,414.82,318,414.82Z"/><path class="cls-1" d="M262.15,278.19c.7,0,.7-1.69,0-1.69S261.44,278.19,262.15,278.19Z"/><path class="cls-1" d="M226.54,277.11c.71,0,.71-1.69,0-1.69S225.84,277.11,226.54,277.11Z"/><path class="cls-1" d="M395.49,213.64c.7,0,.7-1.69,0-1.69S394.78,213.64,395.49,213.64Z"/><path class="cls-1" d="M361.28,131.87c.71,0,.71-1.69,0-1.69S360.57,131.87,361.28,131.87Z"/><path class="cls-1" d="M438.07,36.12c.71,0,.71-1.69,0-1.69S437.37,36.12,438.07,36.12Z"/><path class="cls-1" d="M466,171.68c.7,0,.7-1.69,0-1.69S465.29,171.68,466,171.68Z"/><path class="cls-1" d="M566.53,144.78c.7,0,.7-1.69,0-1.69S565.82,144.78,566.53,144.78Z"/><path class="cls-1" d="M595.15,13.52c.71,0,.71-1.69,0-1.69S594.44,13.52,595.15,13.52Z"/><path class="cls-1" d="M681.72,18.9c.7,0,.7-1.69,0-1.69S681,18.9,681.72,18.9Z"/><path class="cls-1" d="M428,230.31c.71,0,.71-1.69,0-1.69S427.24,230.31,428,230.31Z"/><path class="cls-1" d="M421.67,244.3c.7,0,.7-1.69,0-1.69S421,244.3,421.67,244.3Z"/><path class="cls-1" d="M424.46,229.77c.71,0,.71-1.69,0-1.69S423.75,229.77,424.46,229.77Z"/><path class="cls-1" d="M411.2,243.22c.7,0,.7-1.69,0-1.69S410.49,243.22,411.2,243.22Z"/><path class="cls-1" d="M397.58,263.66c.71,0,.71-1.69,0-1.69S396.88,263.66,397.58,263.66Z"/><path class="cls-1" d="M396.54,239.46c.7,0,.7-1.69,0-1.69S395.83,239.46,396.54,239.46Z"/><path class="cls-1" d="M411.89,256.13c.71,0,.71-1.69,0-1.69S411.19,256.13,411.89,256.13Z"/><path class="cls-1" d="M404.91,266.35c.71,0,.71-1.69,0-1.69S404.21,266.35,404.91,266.35Z"/><path class="cls-1" d="M402.47,255.59c.7,0,.71-1.69,0-1.69S401.76,255.59,402.47,255.59Z"/><path class="cls-1" d="M390.6,283.57c.71,0,.71-1.69,0-1.69S389.89,283.57,390.6,283.57Z"/><path class="cls-1" d="M371.4,305.08c.71,0,.71-1.69,0-1.69S370.7,305.08,371.4,305.08Z"/><path class="cls-1" d="M334.05,339.51c.71,0,.71-1.69,0-1.69S333.35,339.51,334.05,339.51Z"/><path class="cls-1" d="M340.34,322.84c.7,0,.7-1.69,0-1.69S339.63,322.84,340.34,322.84Z"/><path class="cls-1" d="M327.77,332c.71,0,.71-1.69,0-1.69S327.06,332,327.77,332Z"/><path class="cls-1" d="M321.14,347c.7,0,.71-1.69,0-1.69S320.43,347,321.14,347Z"/><path class="cls-1" d="M308.57,350.27c.71,0,.71-1.69,0-1.69S307.87,350.27,308.57,350.27Z"/><path class="cls-1" d="M305.43,360.49c.71,0,.71-1.69,0-1.69S304.72,360.49,305.43,360.49Z"/><path class="cls-1" d="M308.92,366.41c.71,0,.71-1.69,0-1.69S308.21,366.41,308.92,366.41Z"/><path class="cls-1" d="M313.11,360c.71,0,.71-1.69,0-1.69S312.4,360,313.11,360Z"/><path class="cls-1" d="M310,357.26c.7,0,.71-1.69,0-1.69S309.26,357.26,310,357.26Z"/><path class="cls-1" d="M299.15,376.09c.7,0,.7-1.69,0-1.69S298.44,376.09,299.15,376.09Z"/><path class="cls-1" d="M286.58,376.63c.71,0,.71-1.69,0-1.69S285.87,376.63,286.58,376.63Z"/><path class="cls-1" d="M280.3,392.23c.7,0,.71-1.69,0-1.69S279.59,392.23,280.3,392.23Z"/><path class="cls-1" d="M258.66,407.29c.7,0,.7-1.69,0-1.69S258,407.29,258.66,407.29Z"/><path class="cls-1" d="M241.9,441.18c.71,0,.71-1.69,0-1.69S241.2,441.18,241.9,441.18Z"/><path class="cls-1" d="M237.71,431c.71,0,.71-1.69,0-1.69S237,431,237.71,431Z"/><path class="cls-1" d="M226.89,440.11c.71,0,.71-1.69,0-1.69S226.19,440.11,226.89,440.11Z"/><path class="cls-1" d="M231.43,462.16c.71,0,.71-1.69,0-1.69S230.72,462.16,231.43,462.16Z"/><path class="cls-1" d="M265.29,433.11c.7,0,.71-1.69,0-1.69S264.58,433.11,265.29,433.11Z"/><path class="cls-1" d="M261.8,382.55c.7,0,.71-1.69,0-1.69S261.09,382.55,261.8,382.55Z"/><path class="cls-1" d="M249.93,399.22c.71,0,.71-1.69,0-1.69S249.22,399.22,249.93,399.22Z"/><path class="cls-1" d="M270.87,390.62c.71,0,.71-1.69,0-1.69S270.17,390.62,270.87,390.62Z"/><path class="cls-1" d="M452,190c.7,0,.7-1.69,0-1.69S451.33,190,452,190Z"/><path class="cls-1" d="M431.09,171.68c.71,0,.71-1.69,0-1.69S430.39,171.68,431.09,171.68Z"/><path class="cls-1" d="M437.72,194.27c.71,0,.71-1.69,0-1.69S437,194.27,437.72,194.27Z"/><path class="cls-1" d="M448.2,220.09c.7,0,.7-1.69,0-1.69S447.49,220.09,448.2,220.09Z"/><path class="cls-1" d="M462.16,199.65c.7,0,.71-1.69,0-1.69S461.45,199.65,462.16,199.65Z"/><path class="cls-1" d="M448.89,202.34c.71,0,.71-1.69,0-1.69S448.19,202.34,448.89,202.34Z"/><path class="cls-1" d="M440.87,202.88c.7,0,.7-1.69,0-1.69S440.16,202.88,440.87,202.88Z"/><path class="cls-1" d="M444.36,128.1c.7,0,.7-1.69,0-1.69S443.65,128.1,444.36,128.1Z"/><path class="cls-1" d="M453.78,89.91c.71,0,.71-1.69,0-1.69S453.07,89.91,453.78,89.91Z"/><path class="cls-1" d="M478.91,107.66c.71,0,.71-1.69,0-1.69S478.21,107.66,478.91,107.66Z"/><path class="cls-1" d="M464.6,108.2c.71,0,.71-1.69,0-1.69S463.89,108.2,464.6,108.2Z"/><path class="cls-1" d="M478.91,138.86c.71,0,.71-1.69,0-1.69S478.21,138.86,478.91,138.86Z"/><path class="cls-1" d="M478.56,178.67c.71,0,.71-1.69,0-1.69S477.86,178.67,478.56,178.67Z"/><path class="cls-1" d="M496.72,177.59c.7,0,.7-1.69,0-1.69S496,177.59,496.72,177.59Z"/><path class="cls-1" d="M508.58,119c.71,0,.71-1.69,0-1.69S507.88,119,508.58,119Z"/><path class="cls-1" d="M497.06,97.44c.71,0,.71-1.69,0-1.69S496.36,97.44,497.06,97.44Z"/><path class="cls-1" d="M494.27,127c.71,0,.71-1.69,0-1.69S493.56,127,494.27,127Z"/><path class="cls-1" d="M483.1,121.65c.71,0,.71-1.69,0-1.69S482.4,121.65,483.1,121.65Z"/><path class="cls-1" d="M492.18,99.59c.7,0,.7-1.69,0-1.69S491.47,99.59,492.18,99.59Z"/><path class="cls-1" d="M471.58,126c.71,0,.71-1.69,0-1.69S470.88,126,471.58,126Z"/><path class="cls-1" d="M477.17,157.15c.7,0,.7-1.69,0-1.69S476.46,157.15,477.17,157.15Z"/><path class="cls-1" d="M493.92,150.16c.71,0,.71-1.69,0-1.69S493.22,150.16,493.92,150.16Z"/><path class="cls-1" d="M473.68,152.31c.7,0,.7-1.69,0-1.69S473,152.31,473.68,152.31Z"/><path class="cls-1" d="M479.26,195.35c.71,0,.71-1.69,0-1.69S478.56,195.35,479.26,195.35Z"/><path class="cls-1" d="M473.68,214.71c.7,0,.7-1.69,0-1.69S473,214.71,473.68,214.71Z"/><path class="cls-1" d="M460.76,214.71c.71,0,.71-1.69,0-1.69S460.06,214.71,460.76,214.71Z"/><path class="cls-1" d="M456.22,240c.71,0,.71-1.69,0-1.69S455.52,240,456.22,240Z"/><path class="cls-1" d="M439.12,241.61c.71,0,.71-1.69,0-1.69S438.41,241.61,439.12,241.61Z"/><path class="cls-1" d="M436.68,231.93c.7,0,.7-1.69,0-1.69S436,231.93,436.68,231.93Z"/><path class="cls-1" d="M401.42,168.45c.71,0,.71-1.69,0-1.69S400.72,168.45,401.42,168.45Z"/><path class="cls-1" d="M405.61,192.12c.71,0,.71-1.69,0-1.69S404.9,192.12,405.61,192.12Z"/><path class="cls-1" d="M392.35,192.66c.7,0,.7-1.69,0-1.69S391.64,192.66,392.35,192.66Z"/><path class="cls-1" d="M379.43,197c.71,0,.71-1.69,0-1.69S378.72,197,379.43,197Z"/><path class="cls-1" d="M384.67,228.4v0S384.66,228.4,384.67,228.4Z"/><path class="cls-1" d="M389.21,237.84c.7,0,.7-1.69,0-1.69S388.5,237.84,389.21,237.84Z"/><path class="cls-1" d="M380.83,249.14c.7,0,.7-1.69,0-1.69S380.12,249.14,380.83,249.14Z"/><path class="cls-1" d="M370.36,237.84c.7,0,.7-1.69,0-1.69S369.65,237.84,370.36,237.84Z"/><path class="cls-1" d="M379.08,219c.71,0,.71-1.69,0-1.69S378.38,219,379.08,219Z"/><path class="cls-1" d="M411.89,278.19c.71,0,.71-1.69,0-1.69S411.19,278.19,411.89,278.19Z"/><path class="cls-1" d="M400,276c.7,0,.7-1.69,0-1.69S399.32,276,400,276Z"/><path class="cls-1" d="M423.41,287.87c.71,0,.71-1.69,0-1.69S422.71,287.87,423.41,287.87Z"/><path class="cls-1" d="M428.65,258.28c.7,0,.71-1.69,0-1.69S427.94,258.28,428.65,258.28Z"/><path class="cls-1" d="M463.55,262.59c.71,0,.71-1.69,0-1.69S462.85,262.59,463.55,262.59Z"/><path class="cls-1" d="M420.62,303.47c.71,0,.71-1.69,0-1.69S419.91,303.47,420.62,303.47Z"/><path class="cls-1" d="M402.12,314.77c.71,0,.71-1.69,0-1.69S401.41,314.77,402.12,314.77Z"/><path class="cls-1" d="M403.87,335.21c.7,0,.7-1.69,0-1.69S403.16,335.21,403.87,335.21Z"/><path class="cls-1" d="M418.18,335.75c.7,0,.7-1.69,0-1.69S417.47,335.75,418.18,335.75Z"/><path class="cls-1" d="M441.56,280.88c.71,0,.71-1.69,0-1.69S440.86,280.88,441.56,280.88Z"/><path class="cls-1" d="M621.45,194.27c.7,0,.7-1.69,0-1.69S620.74,194.27,621.45,194.27Z"/><path class="cls-1" d="M629.36,223c.7,0,.7-1.69,0-1.69S628.65,223,629.36,223Z"/><path class="cls-1" d="M604.23,256c.7,0,.7-1.69,0-1.69S603.52,256,604.23,256Z"/><path class="cls-1" d="M586.07,231.57c.71,0,.71-1.69,0-1.69S585.37,231.57,586.07,231.57Z"/><path class="cls-1" d="M606.09,268.15c.7,0,.7-1.69,0-1.69S605.38,268.15,606.09,268.15Z"/><path class="cls-1" d="M610.74,256c.71,0,.71-1.69,0-1.69S610,256,610.74,256Z"/><path class="cls-1" d="M619.58,269.58c.71,0,.71-1.69,0-1.69S618.88,269.58,619.58,269.58Z"/><path class="cls-1" d="M725.23,261.69c.71,0,.71-1.69,0-1.69S724.53,261.69,725.23,261.69Z"/><path class="cls-1" d="M715,273.17c.71,0,.71-1.69,0-1.69S714.29,273.17,715,273.17Z"/><path class="cls-1" d="M742.45,271c.71,0,.71-1.69,0-1.69S741.75,271,742.45,271Z"/><path class="cls-1" d="M746.18,260.26c.7,0,.7-1.69,0-1.69S745.47,260.26,746.18,260.26Z"/><path class="cls-1" d="M751.76,301.14c.71,0,.71-1.69,0-1.69S751.05,301.14,751.76,301.14Z"/><path class="cls-1" d="M741.52,328.4c.71,0,.71-1.69,0-1.69S740.81,328.4,741.52,328.4Z"/><path class="cls-1" d="M780.15,348.48c.71,0,.71-1.69,0-1.69S779.44,348.48,780.15,348.48Z"/><path class="cls-1" d="M813.66,277.47c.71,0,.71-1.69,0-1.69S813,277.47,813.66,277.47Z"/><path class="cls-1" d="M810.4,214.35c.71,0,.71-1.69,0-1.69S809.7,214.35,810.4,214.35Z"/><path class="cls-1" d="M784.8,228c.71,0,.71-1.69,0-1.69S784.1,228,784.8,228Z"/><path class="cls-1" d="M796.44,243.76c.71,0,.71-1.69,0-1.69S795.73,243.76,796.44,243.76Z"/><path class="cls-1" d="M797.37,266.59s0,0,0,0Z"/><path class="cls-1" d="M801.09,231.57c.71,0,.71-1.69,0-1.69S800.39,231.57,801.09,231.57Z"/><path class="cls-1" d="M618.19,373.58c.7,0,.7-1.69,0-1.69S617.48,373.58,618.19,373.58Z"/><path class="cls-1" d="M581.42,341.31c.71,0,.71-1.69,0-1.69S580.71,341.31,581.42,341.31Z"/><path class="cls-1" d="M545.58,357.09c.71,0,.71-1.7,0-1.7S544.88,357.09,545.58,357.09Z"/><path class="cls-1" d="M550.7,385.06c.71,0,.71-1.69,0-1.69S550,385.06,550.7,385.06Z"/><path class="cls-1" d="M538.14,395.1c.7,0,.7-1.69,0-1.69S537.43,395.1,538.14,395.1Z"/><path class="cls-1" d="M545.12,418.77c.7,0,.7-1.69,0-1.69S544.41,418.77,545.12,418.77Z"/><path class="cls-1" d="M544.19,432.4c.7,0,.7-1.69,0-1.69S543.48,432.4,544.19,432.4Z"/><path class="cls-1" d="M581.42,380.75c.71,0,.71-1.69,0-1.69S580.71,380.75,581.42,380.75Z"/><path class="cls-1" d="M566.06,316.2c.71,0,.71-1.69,0-1.69S565.35,316.2,566.06,316.2Z"/><path class="cls-1" d="M538.14,276.75c.7,0,.7-1.69,0-1.69S537.43,276.75,538.14,276.75Z"/><path class="cls-1" d="M519.05,302.57c.71,0,.71-1.69,0-1.69S518.35,302.57,519.05,302.57Z"/><path class="cls-1" d="M530.22,306.88c.71,0,.71-1.69,0-1.69S529.52,306.88,530.22,306.88Z"/><path class="cls-1" d="M488.34,347.76c.7,0,.7-1.69,0-1.69S487.63,347.76,488.34,347.76Z"/><path class="cls-1" d="M471.12,341.31c.7,0,.7-1.69,0-1.69S470.41,341.31,471.12,341.31Z"/><path class="cls-1" d="M438.54,347.76c.7,0,.71-1.69,0-1.69S437.83,347.76,438.54,347.76Z"/><path class="cls-1" d="M446.45,375.73c.71,0,.71-1.69,0-1.69S445.74,375.73,446.45,375.73Z"/><path class="cls-1" d="M426.44,366.41c.7,0,.7-1.69,0-1.69S425.73,366.41,426.44,366.41Z"/><path class="cls-1" d="M388.27,345.61c.71,0,.71-1.69,0-1.69S387.57,345.61,388.27,345.61Z"/><path class="cls-1" d="M421.78,395.82c.71,0,.71-1.69,0-1.69S421.08,395.82,421.78,395.82Z"/><path class="cls-1" d="M439.93,401.55c.71,0,.71-1.69,0-1.69S439.23,401.55,439.93,401.55Z"/><path class="cls-1" d="M473.44,401.55c.71,0,.71-1.69,0-1.69S472.74,401.55,473.44,401.55Z"/><path class="cls-1" d="M446.45,440.29c.71,0,.71-1.69,0-1.69S445.74,440.29,446.45,440.29Z"/><path class="cls-1" d="M481.82,464c.71,0,.71-1.69,0-1.69S481.12,464,481.82,464Z"/><path class="cls-1" d="M514.4,425.22c.71,0,.71-1.69,0-1.69S513.69,425.22,514.4,425.22Z"/><path class="cls-1" d="M507.89,385.06c.7,0,.7-1.69,0-1.69S507.18,385.06,507.89,385.06Z"/><path class="cls-1" d="M241.2,332c.71,0,.71-1.69,0-1.69S240.5,332,241.2,332Z"/><path class="cls-1" d="M247.49,354.57c.7,0,.7-1.69,0-1.69S246.78,354.57,247.49,354.57Z"/><path class="cls-1" d="M216.07,323.37c.71,0,.71-1.69,0-1.69S215.37,323.37,216.07,323.37Z"/><path class="cls-1" d="M229.34,373.94c.7,0,.7-1.69,0-1.69S228.63,373.94,229.34,373.94Z"/><path class="cls-1" d="M277.51,318c.7,0,.7-1.69,0-1.69S276.8,318,277.51,318Z"/><path class="cls-1" d="M297.75,280.34c.71,0,.71-1.69,0-1.69S297,280.34,297.75,280.34Z"/><path class="cls-1" d="M179.77,263.13c.71,0,.71-1.69,0-1.69S179.06,263.13,179.77,263.13Z"/><path class="cls-1" d="M147,371.79c.7,0,.71-1.69,0-1.69S146.25,371.79,147,371.79Z"/><path class="cls-1" d="M149.05,304c.71,0,.71-1.69,0-1.69S148.35,304,149.05,304Z"/><path class="cls-1" d="M166.51,290c.7,0,.7-1.69,0-1.69S165.8,290,166.51,290Z"/><path class="cls-1" d="M158.13,222.24c.7,0,.71-1.69,0-1.69S157.42,222.24,158.13,222.24Z"/><path class="cls-1" d="M128.81,249.14c.7,0,.7-1.69,0-1.69S128.1,249.14,128.81,249.14Z"/><path class="cls-1" d="M138.58,263.13c.71,0,.71-1.69,0-1.69S137.87,263.13,138.58,263.13Z"/><path class="cls-1" d="M156,233c.71,0,.71-1.69,0-1.69S155.33,233,156,233Z"/><path class="cls-1" d="M170.69,184.59c.71,0,.71-1.69,0-1.69S170,184.59,170.69,184.59Z"/><path class="cls-1" d="M117.64,214.71c.7,0,.7-1.69,0-1.69S116.93,214.71,117.64,214.71Z"/><path class="cls-1" d="M126,169.53c.71,0,.71-1.69,0-1.69S125.31,169.53,126,169.53Z"/><path class="cls-1" d="M91.81,172.75c.7,0,.7-1.69,0-1.69S91.1,172.75,91.81,172.75Z"/><path class="cls-1" d="M68.77,217.94c.7,0,.71-1.69,0-1.69S68.06,217.94,68.77,217.94Z"/><path class="cls-1" d="M.53,61.92c.71,0,.71-1.69,0-1.69S-.18,61.92.53,61.92Z"/><path class="cls-1" d="M50.62,157.69c.7,0,.7-1.69,0-1.69S49.91,157.69,50.62,157.69Z"/><path class="cls-1" d="M285.88,215.79c.71,0,.71-1.69,0-1.69S285.18,215.79,285.88,215.79Z"/><path class="cls-1" d="M216.77,217.94c.71,0,.71-1.69,0-1.69S216.06,217.94,216.77,217.94Z"/><path class="cls-1" d="M231.43,229.77c.71,0,.71-1.69,0-1.69S230.72,229.77,231.43,229.77Z"/><path class="cls-1" d="M80.64,17.83c.7,0,.7-1.69,0-1.69S79.93,17.83,80.64,17.83Z"/><path class="cls-1" d="M24.79,1.69c.7,0,.7-1.69,0-1.69S24.08,1.69,24.79,1.69Z"/><path class="cls-1" d="M23.39,52.26c.71,0,.71-1.69,0-1.69S22.68,52.26,23.39,52.26Z"/><path class="cls-1" d="M6.92,160.39c.7,0,.71-1.69,0-1.69S6.21,160.39,6.92,160.39Z"/><path class="cls-1" d="M14.32,58.71c.7,0,.7-1.69,0-1.69S13.61,58.71,14.32,58.71Z"/><path class="cls-1" d="M11.12,26.42c.71,0,.71-1.69,0-1.69S10.42,26.42,11.12,26.42Z"/><path class="cls-1" d="M66.67,32.89c.71,0,.71-1.69,0-1.69S66,32.89,66.67,32.89Z"/><path class="cls-1" d="M37.35,25.36c.71,0,.71-1.69,0-1.69S36.65,25.36,37.35,25.36Z"/><path class="cls-1" d="M26.88,209.33c.71,0,.71-1.69,0-1.69S26.18,209.33,26.88,209.33Z"/><path class="cls-1" d="M19.2,282.49c.71,0,.71-1.69,0-1.69S18.5,282.49,19.2,282.49Z"/><path class="cls-1" d="M42.24,309.39c.71,0,.71-1.69,0-1.69S41.53,309.39,42.24,309.39Z"/><path class="cls-1" d="M33.17,350.27c.7,0,.7-1.69,0-1.69S32.46,350.27,33.17,350.27Z"/><path class="cls-1" d="M23.39,328.75c.71,0,.71-1.69,0-1.69S22.68,328.75,23.39,328.75Z"/><path class="cls-1" d="M38.75,330.91c.71,0,.71-1.69,0-1.69S38,330.91,38.75,330.91Z"/><path class="cls-1" d="M43.64,370.71c.7,0,.7-1.69,0-1.69S42.93,370.71,43.64,370.71Z"/><path class="cls-1" d="M31.07,394.38c.71,0,.71-1.69,0-1.69S30.36,394.38,31.07,394.38Z"/><path class="cls-1" d="M66,408.37c.7,0,.7-1.69,0-1.69S65.27,408.37,66,408.37Z"/><path class="cls-1" d="M66,376.09c.7,0,.7-1.69,0-1.69S65.27,376.09,66,376.09Z"/><path class="cls-1" d="M641.92,223.32c.71,0,.71-1.69,0-1.69S641.22,223.32,641.92,223.32Z"/><path class="cls-1" d="M648.21,208.26c.7,0,.7-1.69,0-1.69S647.5,208.26,648.21,208.26Z"/><path class="cls-1" d="M619.58,219c.71,0,.71-1.69,0-1.69S618.88,219,619.58,219Z"/><path class="cls-1" d="M628,251.29c.71,0,.71-1.69,0-1.69S627.25,251.29,628,251.29Z"/><path class="cls-1" d="M651.7,255.59c.7,0,.7-1.69,0-1.69S651,255.59,651.7,255.59Z"/><path class="cls-1" d="M673.34,215h0S673.33,215,673.34,215Z"/><path class="cls-1" d="M665,202.88c.71,0,.71-1.69,0-1.69S664.25,202.88,665,202.88Z"/><path class="cls-1" d="M863.63,163.07c.7,0,.7-1.69,0-1.69S862.92,163.07,863.63,163.07Z"/><path class="cls-1" d="M957.87,30.74c.71,0,.71-1.69,0-1.69S957.16,30.74,957.87,30.74Z"/><path class="cls-1" d="M973.93,126.73v0S973.92,126.73,973.93,126.73Z"/><path class="cls-1" d="M963.46,275c.7,0,.7-1.69,0-1.69S962.75,275,963.46,275Z"/><path class="cls-1" d="M868.51,110.35c.71,0,.71-1.69,0-1.69S867.81,110.35,868.51,110.35Z"/><path class="cls-1" d="M897.83,37.19c.71,0,.71-1.69,0-1.69S897.13,37.19,897.83,37.19Z"/><path class="cls-1" d="M940.42,94.21c.7,0,.71-1.69,0-1.69S939.71,94.21,940.42,94.21Z"/><path class="cls-1" d="M918.78,150.16c.7,0,.7-1.69,0-1.69S918.07,150.16,918.78,150.16Z"/><path class="cls-1" d="M909,254.52c.71,0,.71-1.69,0-1.69S908.3,254.52,909,254.52Z"/><path class="cls-1" d="M958.57,320.15c.71,0,.71-1.69,0-1.69S957.86,320.15,958.57,320.15Z"/><path class="cls-1" d="M1003.25,295.4c.7,0,.71-1.69,0-1.69S1002.54,295.4,1003.25,295.4Z"/><path class="cls-1" d="M1013,172.75c.71,0,.71-1.69,0-1.69S1012.32,172.75,1013,172.75Z"/><path class="cls-1" d="M973.93,217.94c.7,0,.71-1.69,0-1.69S973.22,217.94,973.93,217.94Z"/><path class="cls-1" d="M956.48,179.21c.7,0,.7-1.69,0-1.69S955.77,179.21,956.48,179.21Z"/><path class="cls-1" d="M985.8,143.7c.7,0,.7-1.69,0-1.69S985.09,143.7,985.8,143.7Z"/><path class="cls-1" d="M1020,21.06c.71,0,.71-1.69,0-1.69S1019.3,21.06,1020,21.06Z"/><path class="cls-1" d="M1028.38,94.45s0,0,0,0Z"/><path class="cls-1" d="M916,333.06c.71,0,.71-1.69,0-1.69S915.28,333.06,916,333.06Z"/><path class="cls-1" d="M899.93,421.52v0S899.92,421.52,899.93,421.52Z"/><path class="cls-1" d="M886,18.9c.7,0,.7-1.69,0-1.69S885.26,18.9,886,18.9Z"/><path class="cls-1" d="M929.48,261.69c.71,0,.71-1.69,0-1.69S928.77,261.69,929.48,261.69Z"/><path class="cls-1" d="M919.24,273.17c.71,0,.71-1.69,0-1.69S918.54,273.17,919.24,273.17Z"/><path class="cls-1" d="M946.7,271c.71,0,.71-1.69,0-1.69S946,271,946.7,271Z"/><path class="cls-1" d="M950.42,260.26c.71,0,.71-1.69,0-1.69S949.72,260.26,950.42,260.26Z"/><path class="cls-1" d="M956,301.14c.71,0,.71-1.69,0-1.69S955.3,301.14,956,301.14Z"/><path class="cls-1" d="M945.77,328.4c.71,0,.71-1.69,0-1.69S945.06,328.4,945.77,328.4Z"/><path class="cls-1" d="M984.4,348.48c.71,0,.71-1.69,0-1.69S983.69,348.48,984.4,348.48Z"/><path class="cls-1" d="M1017.91,277.47c.71,0,.71-1.69,0-1.69S1017.2,277.47,1017.91,277.47Z"/><path class="cls-1" d="M1014.65,214.35c.71,0,.71-1.69,0-1.69S1013.94,214.35,1014.65,214.35Z"/><path class="cls-1" d="M989.05,228c.71,0,.71-1.69,0-1.69S988.35,228,989.05,228Z"/><path class="cls-1" d="M1000.69,243.76c.7,0,.71-1.69,0-1.69S1000,243.76,1000.69,243.76Z"/><path class="cls-1" d="M1001.62,266.59s0,0,0,0S1001.61,266.59,1001.62,266.59Z"/><path class="cls-1" d="M1005.34,231.57c.71,0,.71-1.69,0-1.69S1004.64,231.57,1005.34,231.57Z"/><path class="cls-1" d="M877.59,215h0S877.58,215,877.59,215Z"/><path class="cls-1" d="M869.21,202.88c.71,0,.71-1.69,0-1.69S868.5,202.88,869.21,202.88Z"/></g></g></svg>