<svg xmlns="http://www.w3.org/2000/svg" xmlns:xlink="http://www.w3.org/1999/xlink" viewBox="0 0 202.49 202.49"><defs><style>.cls-1{isolation:isolate;}.cls-2,.cls-3,.cls-8{mix-blend-mode:screen;}.cls-2{fill:url(#Áåçûìÿííûé_ãðàäèåíò_50);}.cls-3{fill:url(#Áåçûìÿííûé_ãðàäèåíò_558);}.cls-4{fill:#fff;}.cls-4,.cls-6{fill-rule:evenodd;}.cls-5{opacity:0.31;}.cls-6{fill:#635eb0;}.cls-7{opacity:0.18;}.cls-8{opacity:0.3;fill:url(#Áåçûìÿííûé_ãðàäèåíò_105);}</style><radialGradient id="Áåçûìÿííûé_ãðàäèåíò_50" cx="-1509.62" cy="230.37" r="24.89" gradientTransform="matrix(0, -2.39, -2.37, 0, 654.82, -3508.31)" gradientUnits="userSpaceOnUse"><stop offset="0" stop-color="#31229d"/><stop offset="0.16" stop-color="#302199"/><stop offset="0.32" stop-color="#2c1e8c"/><stop offset="0.48" stop-color="#251a78"/><stop offset="0.64" stop-color="#1c145b"/><stop offset="0.81" stop-color="#110c36"/><stop offset="0.97" stop-color="#030209"/><stop offset="1"/></radialGradient><radialGradient id="Áåçûìÿííûé_ãðàäèåíò_558" cx="-1510.03" cy="230.37" r="21.23" gradientTransform="matrix(0, -2.39, -2.37, 0, 655.4, -3508.62)" gradientUnits="userSpaceOnUse"><stop offset="0" stop-color="#0037a4"/><stop offset="0.15" stop-color="#0036a0"/><stop offset="0.31" stop-color="#003294"/><stop offset="0.47" stop-color="#002b7f"/><stop offset="0.63" stop-color="#002163"/><stop offset="0.79" stop-color="#00153e"/><stop offset="0.95" stop-color="#000611"/><stop offset="1"/></radialGradient><radialGradient id="Áåçûìÿííûé_ãðàäèåíò_105" cx="101.25" cy="101.25" r="101.25" gradientTransform="translate(101.25 -41.94) rotate(45)" gradientUnits="userSpaceOnUse"><stop offset="0" stop-color="#473eff"/><stop offset="1"/></radialGradient></defs><g class="cls-1"><g id="Layer_2" data-name="Layer 2"><g id="Moon"><ellipse class="cls-2" cx="107.98" cy="105.89" rx="59.08" ry="59.59" transform="translate(-43.25 107.37) rotate(-45)"/><ellipse class="cls-3" cx="108.69" cy="106.6" rx="50.4" ry="50.84" transform="translate(-43.54 108.07) rotate(-45)"/><path class="cls-4" d="M64.39,106.78a44,44,0,1,1,44,44A44,44,0,0,1,64.39,106.78Z"/><g class="cls-5"><path class="cls-6" d="M79,123.4c2,0,3.74,1.42,5.34,2.53a10,10,0,0,1,3.31,3.73,11.09,11.09,0,0,1,.4,1.19c0,.1.51,1.36.51,1.4a3.84,3.84,0,0,1-1.18,2.2c-1.58,1.64-4,.46-5.6-.53a26.19,26.19,0,0,1-4.24-3.2,10,10,0,0,1-1.89-1.85,6.38,6.38,0,0,1-.39-3.34c0-1.8-2.33-3.88.52-4.28,1.13-.15,4.56.79,4.81,2.15Z"/><path class="cls-6" d="M114.16,66.39c.48-.54,1-.17,1.6,0a5.16,5.16,0,0,0,1.6.26,13.08,13.08,0,0,1,3.32.26c1.06.26,2.06.42,3.07.67.4.1.78.32,1.19.41.25,0,.53,0,.78,0s.13.17.22.18.4,0,.6.06a25.38,25.38,0,0,1,2.86.74,4.63,4.63,0,0,1,1.21.39c.41.25,1,.53,1.34.8a35,35,0,0,1,4.32,3.27c1.23,1.24,2.5,2.37,3.8,3.53.3.26.54.62.86.87a9.41,9.41,0,0,1,1,.73,16,16,0,0,1,1.73,2.2c1.05,1.52,2.41,2.76,3.23,4.42.4.81.76,1.59,1.23,2.36a11.54,11.54,0,0,1,.81,1.61c.16.4.49.87.6,1.25.16.58.16,1.13.32,1.68.07.25.23.41.28.65s-.08.65,0,1,.23.39.29.65-.09.65,0,1,.23.39.29.64-.11.76,0,1.1.23.37.29.64a4.92,4.92,0,0,1,0,.94c0,.69.24,1.21.27,1.87a8.92,8.92,0,0,1,0,2c-.06.27-.23.39-.29.65s.08.7,0,1c-.71.19-.49-1.33-.48-1.71,0-.68-.29-1.06-.27-1.73s-.33-.94-.81-1.54a4.61,4.61,0,0,1-.8-1.11c-.07-.22-.06-.59-.12-.81a2.48,2.48,0,0,1-.13-.8c0-.65,0-1-.47-1.4a4,4,0,0,0-1.38-.75c-.61-.13-1.14-.12-1.76-.24-.28,0-.38-.23-.64-.29s-.7.13-1,0a2.37,2.37,0,0,1-.79-1.07,1.93,1.93,0,0,1,.21-1.54c.09-.17.16-.36.26-.53s.37-.39.48-.59c.5-.92-.22-2.42-.42-3.2-.08-.3-.53-1.22-.28-1.5s1.76,0,2.05.13c.16-.34-.16-1-.26-1.34a6.33,6.33,0,0,0-.56-1.43,6,6,0,0,0-2.17-2c-.55-.28-.88-.43-1,.29,0,.33,0,.51-.11.82s-.34.24-.43.51.1.66,0,1-.21.36-.26.55c-.14.63.1,1.34,0,2A2.65,2.65,0,0,1,137.47,88,20.36,20.36,0,0,0,134.15,89a5.22,5.22,0,0,1-3.74.33,16.51,16.51,0,0,1-2.77-1.43,9.11,9.11,0,0,0-1.24-.49c-.48-.19-1-.37-1.48-.51a11.25,11.25,0,0,1-2.7-.89,7.92,7.92,0,0,1-2.34-1.8,3.69,3.69,0,0,1-.64-3c.28-.67,1.3-1.25,1.78-1.81.82-1,.6-1.6,0-2.59a5.92,5.92,0,0,1-.71-1.23,6.73,6.73,0,0,1,0-1.85,2.35,2.35,0,0,1,.47-1.27c.26-.39.87-.64,1.08-1s0-.55-.14-.82c0-.08-.17-.11-.22-.18s0-.37-.11-.55c-.27-.61-.79-.52-1.34-.66a2.48,2.48,0,0,0-1.61.12,2.7,2.7,0,0,1-.78.28c-.39.06-.58-.15-.87-.21-.65-.14-1,.31-1.68.35a1.52,1.52,0,0,1-1.25-.61,2.1,2.1,0,0,1-.76-1.41C113.13,67.2,113.79,66.87,114.16,66.39Z"/><path class="cls-6" d="M119.22,86.37a3.92,3.92,0,0,1-.47.22,6.57,6.57,0,0,0-1.4-1.29c-.77-.49-1.16-.18-1.34.66-.09.43.14.69.22,1s0,.73.38,1,2,.15,1.81-.74Z"/><path class="cls-6" d="M144.79,120.73a.45.45,0,0,1,.5-.24,4.74,4.74,0,0,1,0,1.68c0,.25-.21.37-.25.69a6.27,6.27,0,0,1-.05.74c-.07.33-.34.86-.41,1.19a5.33,5.33,0,0,1-.34,1.26c-.19.43-.3,1-.49,1.48a8.44,8.44,0,0,1-.63,1.19c-.49.81-.9,1.59-1.4,2.4a16,16,0,0,1-3.22,4c-.45.38-1,.67-1.45,1-.16.11-.29.3-.45.4s-.41.15-.55.25c-.41.31-1.61,1.52-2.16,1.23.38-1,1-2,1.5-2.95.55-1.12,1.58-1.07,2.4-1.87,1.28-1.24-.86-1.76-1.6-2.25s-.73-1.16-.73-1.94a6.36,6.36,0,0,0-.27-2c-.08-.28-.23-.64-.28-.93l0-.55a.38.38,0,0,0-.22-.31,2.81,2.81,0,0,1,.41-1.86,4.2,4.2,0,0,1,.93-1.74c.52-.49,1.1-.33,1.8-.33a3.38,3.38,0,0,1,1.06.2c.27.07.66.23.86.27s.63.05,1,.12.35.26.8.14.89-.64,1.37-.75c.67-.15,1.44.16,2.1,0C145,121.15,145,121.07,144.79,120.73Z"/><path class="cls-6" d="M95,86.72a3.48,3.48,0,0,0,2.24-1.54c.63-.9-.54-1.84-1.19-2.29a3.55,3.55,0,0,0-.75-.45,3.5,3.5,0,0,0-.69-.32c-.47,0-.65,1.12-.83,1.49-.56,1.17.34,2,1.22,2.71Z"/><path class="cls-6" d="M91.18,84.93l.17-.13c.25.56-.15,1.17-.2,1.7A1.65,1.65,0,0,1,90,85.43c0-.66,1-.69,1.41-.7Z"/><path class="cls-6" d="M84.22,110.78c.22,1,1.58-.11,1.94-.44a3.23,3.23,0,0,0,.65-.74,2.94,2.94,0,0,0,.19-1.3c0-.49.21-.89.2-1.39A5,5,0,0,0,87,105.4a3.75,3.75,0,0,0-1.6-2c-.36-.25-.8-.43-1.2-.65s-.52-.4-1.06-.12a6.71,6.71,0,0,0-1.76,1.11,10,10,0,0,0-1.55,1.84c-.52.9,0,1.6.51,2.39a15.77,15.77,0,0,0,2.13,2.54,4,4,0,0,0,.78.8C83.78,111.6,84.32,111.17,84.22,110.78Z"/><path class="cls-6" d="M84.42,114.36l.16,0c0,.26.57,1.09.2,1.33s-.7-.37-.86-.56-.5-.91-.16-1.26a.51.51,0,0,1,.86.45Z"/><path class="cls-6" d="M93.17,70.81a1.92,1.92,0,0,0,1.49.38c.51-.12.9-.29,1.39-.38a9.77,9.77,0,0,0,3.09-1.19c1.24-.77,3.42-2.92,1.31-4a6.51,6.51,0,0,0-2.9-.37c-.51,0-.78.21-1.3.2a5.55,5.55,0,0,0-1.49.3,15.86,15.86,0,0,0-2.58.84,6.42,6.42,0,0,0-2,1.44,1.61,1.61,0,0,0-.09,2.44c.44.45.83.35,1.44.35Z"/><path class="cls-6" d="M87.8,71.21a.31.31,0,0,1,.37-.18c.22.45-.9,1.16-1.22,1.32-.52.26-1.55.83-1.74,0-.13-.57.5-1.33,1-1.61a1.33,1.33,0,0,1,1.8.7Z"/><path class="cls-6" d="M71.29,108.8l.17,0a6.87,6.87,0,0,0-.17-2.35c-.05-.79,0-1.6,0-2.39v-2.38a5,5,0,0,0,0-1c0-.14-.14-.25-.16-.44a5.34,5.34,0,0,1,0-.8,6.26,6.26,0,0,0,0-1.15s-.14-.39-.16-.44c-.07-.23,0-.25-.14-.45a1.34,1.34,0,0,0-1.66-.6c-.49.25-.86.63-1.37.85a2.55,2.55,0,0,0-1.4,1.39,10.54,10.54,0,0,0-.59,1.8c0,.17-.18.2-.22.38s0,.38,0,.56a2.43,2.43,0,0,0-.16.44c0,.13,0,.27,0,.41a.25.25,0,0,1-.16.23,6,6,0,0,0,0,.95c0,.43-.18.76-.2,1.2s-.21.75-.2,1.19v1.19c0,.8,0,1.59,0,2.39a3.55,3.55,0,0,0,.2,1c.08.4.1.82.18,1.21s.31.58.37.83a2.55,2.55,0,0,0,.39,1A2.71,2.71,0,0,0,67.26,115a2.27,2.27,0,0,0,2.2-.3,2,2,0,0,0,.65-.73,5.17,5.17,0,0,0,0-.57,2.06,2.06,0,0,0,.16-.64,11.81,11.81,0,0,1,0-2.59c.08-.37.33-.8.45-1.19S70.89,108.12,71.29,108.8Z"/><path class="cls-6" d="M72.29,118.94c.52.16.79-1,.79-1.39s.1-.69-.19-.91a1.65,1.65,0,0,0-1-.1c-.63.19-.58,1.09-.59,1.6s.48,1.33,1.19,1.2Z"/><path class="cls-6" d="M140.51,119.74l0,.16c.21,0,.32.17.48.22a2.57,2.57,0,0,0,.68,0,8.41,8.41,0,0,1,1.19.21,5.45,5.45,0,0,0,.7,0,2.07,2.07,0,0,0,.54-.15,2.53,2.53,0,0,0,1.15-.34,5.47,5.47,0,0,0,1.39-1.78,5,5,0,0,0,.8-2.5,1.71,1.71,0,0,0-.22-1.07,4.38,4.38,0,0,1-.53-1,1.47,1.47,0,0,0-1.64-1.14,5.05,5.05,0,0,0-2.38.89,8.05,8.05,0,0,0-.92.67,3,3,0,0,0-.78.62,6.67,6.67,0,0,0-.79,2.39,3.33,3.33,0,0,0-.08,1.48c0,.08.12.09.13.16s0,.31,0,.45S140.58,119.48,140.51,119.74Z"/><path class="cls-6" d="M138.32,118.14c.51,0-.18,1.43-.75,1.36s-.91-.86-1-1.27c-.49-1.78,2.2-1.92,2.17-.29Z"/><path class="cls-6" d="M131.75,115c.05-.42.46-.67.56-1a1.17,1.17,0,0,0-.3-1c-.18-.25-.53-.63-.86-.56s-.52.52-.78.72c-.53.39-1.45.79-.8,1.58a1.72,1.72,0,0,0,1.09.51,1.49,1.49,0,0,0,1.29-.41Z"/><path class="cls-6" d="M145.48,97.26c.73-.18.67.95.57,1.36a5.24,5.24,0,0,1-1,.25,3,3,0,0,1-1.16-.47,1.35,1.35,0,0,1-.55-1.74c.22-.42,1.19-1.06,1.66-.75a2.54,2.54,0,0,1,.64,1.75Z"/><path class="cls-6" d="M89.39,140c.19.36.32.52,0,.8a1,1,0,0,1-1,.15,3.71,3.71,0,0,1-1.29-1.09,2.45,2.45,0,0,1-.5-.9,1.13,1.13,0,0,1,.3-.8,12.26,12.26,0,0,1,1.2-1.19c.57-.59.92-.25,1.39.3s.66.93,1,1.38a4.27,4.27,0,0,1,.4.8,1.18,1.18,0,0,1-.25.76,3.79,3.79,0,0,1-1.5,1.18Z"/><path class="cls-6" d="M84.62,138.43l.16,0a.67.67,0,0,0-.55-1c-.45-.11-1.11.09-1.22.5s.31.78.61,1c.46.35.89.41,1-.3Z"/><path class="cls-6" d="M87.6,87.51c-.06-.19.18-.75.24-1a9,9,0,0,1,.36-.94,4.39,4.39,0,0,0,.3-1c.06-.36.24-.65.3-1,.15-.75-.73-1.27-1.41-1.11a5.11,5.11,0,0,0-1.62,1c-.33.24-.42.19-.61.59a10,10,0,0,0-.34,1.06,2.6,2.6,0,0,0-.2,1,5.23,5.23,0,0,0,0,1.19c.46,1.88,2.51.68,2.94-.59Z"/><path class="cls-6" d="M81.63,74.59c.2.7-1.13,1.19-1.59,1.19s-.64-.06-.84-.55a1,1,0,0,1,0-1.14,2.22,2.22,0,0,1,2.27-.68c.83.33.47,1.43-.28,1.57Z"/><path class="cls-6" d="M90.19,88.91a1,1,0,0,1,.6.58c.06.18,0,.38,0,.57a2.61,2.61,0,0,1,.16.43c0,.2-.06.41,0,.6s.18.38.22.6c.07.38-.09.81,0,1.19s.41.77.17,1.16-.63.28-1,.24a7.56,7.56,0,0,1-1-.25,4.14,4.14,0,0,1-1.28-.55A2.64,2.64,0,0,1,86.8,92a6.11,6.11,0,0,1,.1-2.3,2.43,2.43,0,0,1,.89-1.5,3.09,3.09,0,0,1,2.2.11Z"/><path class="cls-6" d="M85.61,89.3v.14c.18-1-1-.86-1.2-.15s1,1.07,1.2.21Z"/><path class="cls-6" d="M71.63,95.3a2.55,2.55,0,0,0-.29,1.75,13.67,13.67,0,0,0,.75,1.82,2.17,2.17,0,0,1,.07,1.31,4.65,4.65,0,0,0,0,1.82c.13.68.3,1.39.37,2.07a23.8,23.8,0,0,1,0,2.39A3.71,3.71,0,0,0,74.75,110a3,3,0,0,0,1.36.24,1.25,1.25,0,0,0,1.08-.53,5,5,0,0,0,.78-1.36,7.22,7.22,0,0,0,.55-1.32c.2-.74-.15-1.87.35-2.51a3,3,0,0,1,.59-.45c.22-.18.41-.4.61-.6a4,4,0,0,0,.79-1.54,4.54,4.54,0,0,1,.82-1.37c.51-.54,1.22-.86,1.69-1.41a2,2,0,0,0,.45-1.4,4.31,4.31,0,0,0,0-1.08,3.93,3.93,0,0,1-.28-1.07,3.08,3.08,0,0,1,.15-1.21A3.87,3.87,0,0,0,84,92.71a8.47,8.47,0,0,0-1.53-3.62,4.7,4.7,0,0,1-.73-1.63A4.89,4.89,0,0,1,82,85.39a6.23,6.23,0,0,1,1-1.74A6.58,6.58,0,0,1,84.27,82a3.73,3.73,0,0,1,1.84-.89,5,5,0,0,1,.77-.14,6.7,6.7,0,0,1,1,.17c1.34.14,2.49-.72,3.81-.78a2.64,2.64,0,0,1,1.53.37,3.88,3.88,0,0,0,1.28.52c1.09.23,2.51-.37,3.39.48.33.33.39.78.71,1.08a4.16,4.16,0,0,0,2.07.85,23.68,23.68,0,0,1,3.23.76c1,.39,2,1.09,3,1.45a7.14,7.14,0,0,0,3.67-.1,3.25,3.25,0,0,0,1.91-1.13,5,5,0,0,1,.6-1c.29-.3.66-.3,1.07-.4a2.89,2.89,0,0,0,2.18-2.48c.18-.86.06-1.73.22-2.6a13.78,13.78,0,0,1,.88-2.75,4.7,4.7,0,0,0,.39-2.08c0-.67-.12-1.71-.76-2.06a3.07,3.07,0,0,0-1.77-.22,7.81,7.81,0,0,1-3,0,2.88,2.88,0,0,1-1.71-1.69c-.58-1-.85-2.17-1.44-3.21a2.54,2.54,0,0,0-2-1.53,1.85,1.85,0,0,0-1.52.77c-.54.64-.87,1.43-1.39,2.09a8.81,8.81,0,0,1-1.47,1.58c-1,.73-2.25.78-3.35,1.2S97.25,71.61,96,71.91c-1.63.4-3.26.08-4.92.26a12.26,12.26,0,0,0-2.86.73,16.79,16.79,0,0,0-2.13,1.15,22.25,22.25,0,0,1-2.16,1.14c-.8.3-1.63.49-2.42.83a16.41,16.41,0,0,1-2.21.93,7,7,0,0,0-2.46,1.27,6.21,6.21,0,0,0-1.68,2.13c-.25.51-.41,1.06-.68,1.56a8,8,0,0,1-1,1.35c-.55.61-1.14,1.19-1.67,1.82a14.1,14.1,0,0,0-1.53,2.67c-.36.67-.53,1.39-.83,2.08a16,16,0,0,1-1,2.09,3.62,3.62,0,0,0-.58,1.37,1.67,1.67,0,0,0,.13.61c.07.21.24.37.29.58.12.4,0,.93.31,1.25a.64.64,0,0,0,.85,0,3.09,3.09,0,0,1,.91-.45A1.66,1.66,0,0,1,71.63,95.3Z"/></g><g class="cls-7"><path class="cls-6" d="M105.86,70.62a7,7,0,0,0-.94,1.19,1.46,1.46,0,0,0,0,.4,2.32,2.32,0,0,1-.1.74,10.33,10.33,0,0,1-1,1.83,4.85,4.85,0,0,1-.5.59c-.17.21-.27.41-.46.61a18.24,18.24,0,0,0-1.65,1.75,2.88,2.88,0,0,0-.07,3.69,2.53,2.53,0,0,0,1.17.83,1.71,1.71,0,0,0,.78,0c.48-.13,1-.17,1.43-.29a2.25,2.25,0,0,1,1.55.16,4.65,4.65,0,0,1,.84.3,3.64,3.64,0,0,0,.77.37,2.7,2.7,0,0,0,1.74-.22,9.6,9.6,0,0,0,1.12-.54c.47-.26,1-.36,1.5-.59a7.16,7.16,0,0,0,1.08-.67,4.59,4.59,0,0,0,.67-.78c.58-.67.39-1.7.66-2.49s.82-1.28,1-2a2.37,2.37,0,0,0-.67-1.86,2.71,2.71,0,0,0-2-.87c-.57,0-1.14,0-1.71,0a3.14,3.14,0,0,1-1.15-.39c-.42-.2-.77-.46-1.18-.68s-.65-.48-1-.66a2.37,2.37,0,0,0-1-.37C106.28,70.57,106.09,70.76,105.86,70.62Z"/><path class="cls-6" d="M93.27,75c-.13-.57-.29-1.11-.94-1.22a3.65,3.65,0,0,0-1.19,0,4.62,4.62,0,0,0-1.44.8c-.51.31-1.56.62-1.47,1.39s.82,1,1.3,1.38.87.94,1.64.84a2.38,2.38,0,0,0,1.68-1.35,8.83,8.83,0,0,0,.65-1.26c.09-.29,0-1-.39-1.06Z"/><path class="cls-6" d="M102.57,99c-.1-.45-.22-.86-.72-1a2.84,2.84,0,0,0-.92,0,3.37,3.37,0,0,0-1.11.62c-.39.24-1.21.48-1.14,1.07s.64.79,1,1.07.67.72,1.26.65a1.83,1.83,0,0,0,1.3-1,6.26,6.26,0,0,0,.5-1c.07-.23,0-.78-.3-.83Z"/><path class="cls-6" d="M77.77,101.18c-.09-.38-.19-.75-.63-.82a2.45,2.45,0,0,0-.81,0,3,3,0,0,0-1,.54c-.34.21-1.06.41-1,.93s.55.69.87.93.59.63,1.11.56a1.56,1.56,0,0,0,1.12-.9,4.9,4.9,0,0,0,.44-.85c.06-.19,0-.67-.26-.72Z"/><path class="cls-6" d="M68.73,99a1.05,1.05,0,0,0-.48-.66c-.19.2-.45.29-.66.48a3,3,0,0,0-.86,1.57,11.08,11.08,0,0,0,0,1.15c0,.54-.14,1-.16,1.58,0,1-.1,1.94.81,2.6a1.24,1.24,0,0,0,1.73-.1,3.51,3.51,0,0,0,.94-2c.07-.39.08-.79.15-1.18s.14-.65.23-1a2.62,2.62,0,0,0-.19-2.14C69.84,98.6,69.49,98.2,68.73,99Z"/><path class="cls-6" d="M124.05,73.24c-.64.14-1.28.32-1.91.51,0,.62-.34,1.15-.09,1.77.32.8,1,1.38,1.29,2.17.52,1.57-.73,2.89-.94,4.38-.3,2.11,2.63,2,3.91,2.1a7.1,7.1,0,0,1,2.61.64A9.64,9.64,0,0,0,131.69,86a4.29,4.29,0,0,0,2.88-.7,5,5,0,0,0,2.05-2.57,3.53,3.53,0,0,0-.16-2.13,5.79,5.79,0,0,0-1.66-2.09c-.47-.49-.82-1.07-1.28-1.57s-1.16-1.28-1.74-1.91a13.08,13.08,0,0,0-3.08-2.77,4.2,4.2,0,0,0-2.73-.51A2,2,0,0,0,124.05,73.24Z"/></g><circle class="cls-8" cx="101.25" cy="101.25" r="101.25" transform="translate(-41.94 101.25) rotate(-45)"/></g></g></g></svg>