<svg xmlns="http://www.w3.org/2000/svg" viewBox="0 0 1021.96 529.08"><defs><style>.cls-1{fill:#475293;}</style></defs><g id="Layer_2" data-name="Layer 2"><g id="stars_and_space" data-name="stars and space"><path class="cls-1" d="M619.82,110.78c.71,0,.71-1.61,0-1.61S619.11,110.78,619.82,110.78Z"/><path class="cls-1" d="M589,167.7c.71,0,.71-1.6,0-1.6S588.27,167.7,589,167.7Z"/><path class="cls-1" d="M400.08,96.46s0,0,0,0Z"/><path class="cls-1" d="M405.87,143.8h0S405.86,143.8,405.87,143.8Z"/><path class="cls-1" d="M521.52,222.94c.7,0,.7-1.61,0-1.61S520.81,222.94,521.52,222.94Z"/><path class="cls-1" d="M423.6,173.9c.7,0,.71-1.6,0-1.6S422.89,173.9,423.6,173.9Z"/><path class="cls-1" d="M317,131.35c.7,0,.7-1.6,0-1.6S316.3,131.35,317,131.35Z"/><path class="cls-1" d="M329.73,226c.7,0,.71-1.6,0-1.6S329,226,329.73,226Z"/><path class="cls-1" d="M642.56,261.54c.71,0,.71-1.6,0-1.6S641.86,261.54,642.56,261.54Z"/><path class="cls-1" d="M744.92,189.68c.7,0,.7-1.6,0-1.6S744.21,189.68,744.92,189.68Z"/><path class="cls-1" d="M778.45,260.7c.71,0,.71-1.61,0-1.61S777.75,260.7,778.45,260.7Z"/><path class="cls-1" d="M785.39,84.85c.71,0,.71-1.6,0-1.6S784.69,84.85,785.39,84.85Z"/><path class="cls-1" d="M536.74,52.73c.71,0,.71-1.61,0-1.61S536,52.73,536.74,52.73Z"/><path class="cls-1" d="M513.61,96.69c.71,0,.71-1.61,0-1.61S512.91,96.69,513.61,96.69Z"/><path class="cls-1" d="M483,60.34c.7,0,.7-1.61,0-1.61S482.26,60.34,483,60.34Z"/><path class="cls-1" d="M466.2,80.62c.7,0,.7-1.6,0-1.6S465.49,80.62,466.2,80.62Z"/><path class="cls-1" d="M358.64,33.28c.71,0,.71-1.6,0-1.6S357.93,33.28,358.64,33.28Z"/><path class="cls-1" d="M238.94,27.36c.71,0,.71-1.6,0-1.6S238.24,27.36,238.94,27.36Z"/><path class="cls-1" d="M225.64,102.66s0,0,0,0Z"/><path class="cls-1" d="M234.32,219.27c.7,0,.7-1.6,0-1.6S233.61,219.27,234.32,219.27Z"/><path class="cls-1" d="M367.89,264.08c.71,0,.71-1.61,0-1.61S367.19,264.08,367.89,264.08Z"/><path class="cls-1" d="M465,325.79c.71,0,.71-1.6,0-1.6S464.33,325.79,465,325.79Z"/><path class="cls-1" d="M482.39,369.75c.7,0,.7-1.6,0-1.6S481.68,369.75,482.39,369.75Z"/><path class="cls-1" d="M603.82,357.92c.71,0,.71-1.6,0-1.6S603.11,357.92,603.82,357.92Z"/><path class="cls-1" d="M683,291.13c.71,0,.71-1.6,0-1.6S682.34,291.13,683,291.13Z"/><path class="cls-1" d="M656.44,147.41c.71,0,.71-1.6,0-1.6S655.74,147.41,656.44,147.41Z"/><path class="cls-1" d="M799.85,179.54c.71,0,.71-1.61,0-1.61S799.14,179.54,799.85,179.54Z"/><path class="cls-1" d="M834.55,119.51c.7,0,.7-1.6,0-1.6S833.84,119.51,834.55,119.51Z"/><path class="cls-1" d="M831.65,49.34c.71,0,.71-1.6,0-1.6S831,49.34,831.65,49.34Z"/><path class="cls-1" d="M754.17,5.38c.7,0,.7-1.6,0-1.6S753.46,5.38,754.17,5.38Z"/><path class="cls-1" d="M780.77,48.5c.7,0,.7-1.6,0-1.6S780.06,48.5,780.77,48.5Z"/><path class="cls-1" d="M771.52,67.1c.7,0,.7-1.6,0-1.6S770.81,67.1,771.52,67.1Z"/><path class="cls-1" d="M779,89.92c.71,0,.71-1.6,0-1.6S778.33,89.92,779,89.92Z"/><path class="cls-1" d="M791.75,77.24c.71,0,.71-1.6,0-1.6S791.05,77.24,791.75,77.24Z"/><path class="cls-1" d="M794.65,118.67c.7,0,.7-1.61,0-1.61S793.94,118.67,794.65,118.67Z"/><path class="cls-1" d="M772.67,111.91c.71,0,.71-1.61,0-1.61S772,111.91,772.67,111.91Z"/><path class="cls-1" d="M822.4,232s0,0,0,0Z"/><path class="cls-1" d="M838.59,308.88c.71,0,.71-1.6,0-1.6S837.89,308.88,838.59,308.88Z"/><path class="cls-1" d="M797,320.72c.7,0,.71-1.6,0-1.6S796.25,320.72,797,320.72Z"/><path class="cls-1" d="M808,281.83c.7,0,.7-1.6,0-1.6S807.24,281.83,808,281.83Z"/><path class="cls-1" d="M711.38,312.27c.7,0,.7-1.61,0-1.61S710.67,312.27,711.38,312.27Z"/><path class="cls-1" d="M691.14,363c.7,0,.7-1.6,0-1.6S690.43,363,691.14,363Z"/><path class="cls-1" d="M610.18,357.07c.71,0,.71-1.6,0-1.6S609.48,357.07,610.18,357.07Z"/><path class="cls-1" d="M619.43,301.33s0,0,0,0Z"/><path class="cls-1" d="M569.7,334.25c.71,0,.71-1.61,0-1.61S569,334.25,569.7,334.25Z"/><path class="cls-1" d="M558.14,366.37c.7,0,.71-1.6,0-1.6S557.43,366.37,558.14,366.37Z"/><path class="cls-1" d="M533.85,314c.71,0,.71-1.61,0-1.61S533.15,314,533.85,314Z"/><path class="cls-1" d="M576.64,188.84c.71,0,.71-1.61,0-1.61S575.94,188.84,576.64,188.84Z"/><path class="cls-1" d="M535,144c.7,0,.71-1.6,0-1.6S534.3,144,535,144Z"/><path class="cls-1" d="M578.38,57c.7,0,.7-1.6,0-1.6S577.67,57,578.38,57Z"/><path class="cls-1" d="M635.63,26.52c.7,0,.7-1.6,0-1.6S634.92,26.52,635.63,26.52Z"/><path class="cls-1" d="M678.42,70.48c.7,0,.7-1.6,0-1.6S677.71,70.48,678.42,70.48Z"/><path class="cls-1" d="M682.46,125.43c.71,0,.71-1.6,0-1.6S681.76,125.43,682.46,125.43Z"/><path class="cls-1" d="M699.23,98.38c.71,0,.71-1.6,0-1.6S698.53,98.38,699.23,98.38Z"/><path class="cls-1" d="M375.41,100.91c.71,0,.71-1.6,0-1.6S374.7,100.91,375.41,100.91Z"/><path class="cls-1" d="M367.32,155.87c.7,0,.7-1.61,0-1.61S366.61,155.87,367.32,155.87Z"/><path class="cls-1" d="M393.34,206.59c.7,0,.7-1.6,0-1.6S392.63,206.59,393.34,206.59Z"/><path class="cls-1" d="M450,198.14c.7,0,.7-1.61,0-1.61S449.3,198.14,450,198.14Z"/><path class="cls-1" d="M458.68,137.27c.71,0,.71-1.61,0-1.61S458,137.27,458.68,137.27Z"/><path class="cls-1" d="M419.94,87.39c.7,0,.7-1.61,0-1.61S419.23,87.39,419.94,87.39Z"/><path class="cls-1" d="M407.21,47.65c.71,0,.71-1.6,0-1.6S406.51,47.65,407.21,47.65Z"/><path class="cls-1" d="M319.9,62.87c.7,0,.71-1.6,0-1.6S319.19,62.87,319.9,62.87Z"/><path class="cls-1" d="M336.67,129.66c.7,0,.7-1.6,0-1.6S336,129.66,336.67,129.66Z"/><path class="cls-1" d="M313,89.92c.7,0,.71-1.6,0-1.6S312.25,89.92,313,89.92Z"/><path class="cls-1" d="M288.67,32.44c.71,0,.71-1.61,0-1.61S288,32.44,288.67,32.44Z"/><path class="cls-1" d="M253.4,77.24c.7,0,.71-1.6,0-1.6S252.69,77.24,253.4,77.24Z"/><path class="cls-1" d="M271.32,121.2c.71,0,.71-1.6,0-1.6S270.62,121.2,271.32,121.2Z"/><path class="cls-1" d="M279.42,203.21c.71,0,.71-1.6,0-1.6S278.71,203.21,279.42,203.21Z"/><path class="cls-1" d="M238.36,254.78c.71,0,.71-1.6,0-1.6S237.66,254.78,238.36,254.78Z"/><path class="cls-1" d="M201.36,235.33c.7,0,.7-1.6,0-1.6S200.65,235.33,201.36,235.33Z"/><path class="cls-1" d="M193.26,139c.71,0,.71-1.61,0-1.61S192.55,139,193.26,139Z"/><path class="cls-1" d="M225.64,174.47c.71,0,.71-1.61,0-1.61S224.94,174.47,225.64,174.47Z"/><path class="cls-1" d="M240.1,144c.7,0,.71-1.6,0-1.6S239.39,144,240.1,144Z"/><path class="cls-1" d="M215.81,116.13c.71,0,.71-1.6,0-1.6S215.11,116.13,215.81,116.13Z"/><path class="cls-1" d="M187.48,19.76c.7,0,.7-1.61,0-1.61S186.77,19.76,187.48,19.76Z"/><path class="cls-1" d="M180.54,77.29h0S180.53,77.29,180.54,77.29Z"/><path class="cls-1" d="M273.64,264.92c.7,0,.7-1.6,0-1.6S272.93,264.92,273.64,264.92Z"/><path class="cls-1" d="M326.26,319.88c.7,0,.71-1.61,0-1.61S325.55,319.88,326.26,319.88Z"/><path class="cls-1" d="M323.37,352c.7,0,.7-1.6,0-1.6S322.66,352,323.37,352Z"/><path class="cls-1" d="M286.94,334.3v0S286.93,334.3,286.94,334.3Z"/><path class="cls-1" d="M359.8,352c.7,0,.7-1.6,0-1.6S359.09,352,359.8,352Z"/><path class="cls-1" d="M435,279.3c.71,0,.71-1.61,0-1.61S434.26,279.3,435,279.3Z"/><path class="cls-1" d="M485.86,234.49c.7,0,.7-1.6,0-1.6S485.15,234.49,485.86,234.49Z"/><path class="cls-1" d="M568,248c.71,0,.71-1.61,0-1.61S567.26,248,568,248Z"/><path class="cls-1" d="M602.66,207.44c.71,0,.71-1.61,0-1.61S602,207.44,602.66,207.44Z"/><path class="cls-1" d="M584.16,275.91c.71,0,.71-1.6,0-1.6S583.45,275.91,584.16,275.91Z"/><path class="cls-1" d="M581.85,238.72c.7,0,.7-1.61,0-1.61S581.14,238.72,581.85,238.72Z"/><path class="cls-1" d="M625.22,333.4c.7,0,.7-1.6,0-1.6S624.51,333.4,625.22,333.4Z"/><path class="cls-1" d="M599.77,329.17c.71,0,.71-1.6,0-1.6S599.07,329.17,599.77,329.17Z"/><path class="cls-1" d="M646,221.81c.71,0,.71-1.61,0-1.61S645.33,221.81,646,221.81Z"/><path class="cls-1" d="M675.53,221c.7,0,.7-1.6,0-1.6S674.82,221,675.53,221Z"/><path class="cls-1" d="M535.59,171.08c.7,0,.7-1.6,0-1.6S534.88,171.08,535.59,171.08Z"/><path class="cls-1" d="M563.92,106.83c.71,0,.71-1.6,0-1.6S563.21,106.83,563.92,106.83Z"/><path class="cls-1" d="M500.31,31.59c.71,0,.71-1.6,0-1.6S499.61,31.59,500.31,31.59Z"/><path class="cls-1" d="M477.18,138.11c.71,0,.71-1.6,0-1.6S476.48,138.11,477.18,138.11Z"/><path class="cls-1" d="M393.91,117c.71,0,.71-1.61,0-1.61S393.21,117,393.91,117Z"/><path class="cls-1" d="M370.21,13.84c.7,0,.7-1.61,0-1.61S369.5,13.84,370.21,13.84Z"/><path class="cls-1" d="M298.5,18.06c.71,0,.71-1.6,0-1.6S297.8,18.06,298.5,18.06Z"/><path class="cls-1" d="M228.23,84.22s0,0,0,0Z"/><path class="cls-1" d="M234,131.56s0,0,0,0Z"/><path class="cls-1" d="M251.75,161.67c.7,0,.7-1.61,0-1.61S251,161.67,251.75,161.67Z"/><path class="cls-1" d="M145.16,119.12c.7,0,.7-1.61,0-1.61S144.45,119.12,145.16,119.12Z"/><path class="cls-1" d="M157.88,213.8c.7,0,.7-1.6,0-1.6S157.17,213.8,157.88,213.8Z"/><path class="cls-1" d="M311.12,48.1c.7,0,.7-1.6,0-1.6S310.41,48.1,311.12,48.1Z"/><path class="cls-1" d="M294.35,68.39c.7,0,.7-1.6,0-1.6S293.64,68.39,294.35,68.39Z"/><path class="cls-1" d="M186.79,21.05c.71,0,.71-1.61,0-1.61S186.08,21.05,186.79,21.05Z"/><path class="cls-1" d="M67.09,15.13c.71,0,.71-1.6,0-1.6S66.38,15.13,67.09,15.13Z"/><path class="cls-1" d="M53.79,90.42s0,0,0,0Z"/><path class="cls-1" d="M62.47,207c.7,0,.7-1.61,0-1.61S61.76,207,62.47,207Z"/><path class="cls-1" d="M196,251.84c.71,0,.71-1.6,0-1.6S195.34,251.84,196,251.84Z"/><path class="cls-1" d="M293.19,313.56c.71,0,.71-1.6,0-1.6S292.48,313.56,293.19,313.56Z"/><path class="cls-1" d="M310.54,357.52c.7,0,.7-1.6,0-1.6S309.83,357.52,310.54,357.52Z"/><path class="cls-1" d="M203.56,88.68c.71,0,.71-1.6,0-1.6S202.85,88.68,203.56,88.68Z"/><path class="cls-1" d="M195.46,143.63c.71,0,.71-1.6,0-1.6S194.76,143.63,195.46,143.63Z"/><path class="cls-1" d="M221.49,194.36c.7,0,.7-1.61,0-1.61S220.78,194.36,221.49,194.36Z"/><path class="cls-1" d="M278.15,185.9c.71,0,.71-1.6,0-1.6S277.45,185.9,278.15,185.9Z"/><path class="cls-1" d="M286.83,125c.7,0,.71-1.6,0-1.6S286.12,125,286.83,125Z"/><path class="cls-1" d="M248.09,75.15c.7,0,.7-1.6,0-1.6S247.38,75.15,248.09,75.15Z"/><path class="cls-1" d="M235.36,35.42c.71,0,.71-1.6,0-1.6S234.66,35.42,235.36,35.42Z"/><path class="cls-1" d="M148.05,50.64c.7,0,.7-1.61,0-1.61S147.34,50.64,148.05,50.64Z"/><path class="cls-1" d="M164.82,117.42c.7,0,.7-1.6,0-1.6S164.11,117.42,164.82,117.42Z"/><path class="cls-1" d="M141.11,77.69c.7,0,.71-1.6,0-1.6S140.4,77.69,141.11,77.69Z"/><path class="cls-1" d="M116.82,20.2c.71,0,.71-1.6,0-1.6S116.11,20.2,116.82,20.2Z"/><path class="cls-1" d="M81.55,65c.7,0,.7-1.6,0-1.6S80.84,65,81.55,65Z"/><path class="cls-1" d="M99.47,109c.71,0,.71-1.6,0-1.6S98.77,109,99.47,109Z"/><path class="cls-1" d="M107.57,191c.71,0,.71-1.6,0-1.6S106.86,191,107.57,191Z"/><path class="cls-1" d="M66.51,242.54c.71,0,.71-1.6,0-1.6S65.81,242.54,66.51,242.54Z"/><path class="cls-1" d="M29.51,223.1c.7,0,.7-1.6,0-1.6S28.8,223.1,29.51,223.1Z"/><path class="cls-1" d="M21.41,126.72c.71,0,.71-1.6,0-1.6S20.7,126.72,21.41,126.72Z"/><path class="cls-1" d="M53.79,162.23c.71,0,.71-1.6,0-1.6S53.09,162.23,53.79,162.23Z"/><path class="cls-1" d="M68.25,131.8c.7,0,.71-1.61,0-1.61S67.54,131.8,68.25,131.8Z"/><path class="cls-1" d="M44,103.9c.71,0,.71-1.61,0-1.61S43.25,103.9,44,103.9Z"/><path class="cls-1" d="M15.63,7.52c.7,0,.7-1.6,0-1.6S14.92,7.52,15.63,7.52Z"/><path class="cls-1" d="M8.69,65.06h0S8.68,65.06,8.69,65.06Z"/><path class="cls-1" d="M101.79,252.69c.7,0,.7-1.6,0-1.6S101.08,252.69,101.79,252.69Z"/><path class="cls-1" d="M154.41,307.64c.7,0,.71-1.6,0-1.6S153.7,307.64,154.41,307.64Z"/><path class="cls-1" d="M151.52,339.77c.7,0,.7-1.61,0-1.61S150.81,339.77,151.52,339.77Z"/><path class="cls-1" d="M115.09,322.06h0S115.08,322.06,115.09,322.06Z"/><path class="cls-1" d="M188,339.77c.7,0,.7-1.61,0-1.61S187.24,339.77,188,339.77Z"/><path class="cls-1" d="M263.12,267.06c.71,0,.71-1.6,0-1.6S262.41,267.06,263.12,267.06Z"/><path class="cls-1" d="M314,222.25c.7,0,.7-1.6,0-1.6S313.3,222.25,314,222.25Z"/><path class="cls-1" d="M328.46,19.36c.71,0,.71-1.61,0-1.61S327.76,19.36,328.46,19.36Z"/><path class="cls-1" d="M305.33,125.88c.71,0,.71-1.61,0-1.61S304.63,125.88,305.33,125.88Z"/><path class="cls-1" d="M222.06,104.74c.71,0,.71-1.6,0-1.6S221.36,104.74,222.06,104.74Z"/><path class="cls-1" d="M198.36,1.6c.7,0,.7-1.6,0-1.6S197.65,1.6,198.36,1.6Z"/><path class="cls-1" d="M126.65,5.83c.71,0,.71-1.6,0-1.6S126,5.83,126.65,5.83Z"/><path class="cls-1" d="M143.32,212.53c.71,0,.71-1.6,0-1.6S142.61,212.53,143.32,212.53Z"/><path class="cls-1" d="M65.26,108.55c.7,0,.7-1.61,0-1.61S64.55,108.55,65.26,108.55Z"/><path class="cls-1" d="M52,183.84h0S52,183.84,52,183.84Z"/><path class="cls-1" d="M146.21,144.05c.71,0,.71-1.6,0-1.6S145.5,144.05,146.21,144.05Z"/><path class="cls-1" d="M139.27,171.11c.71,0,.71-1.61,0-1.61S138.57,171.11,139.27,171.11Z"/><path class="cls-1" d="M115,113.62c.7,0,.7-1.6,0-1.6S114.28,113.62,115,113.62Z"/><path class="cls-1" d="M79.71,158.43c.71,0,.71-1.61,0-1.61S79,158.43,79.71,158.43Z"/><path class="cls-1" d="M97.64,202.39c.7,0,.7-1.61,0-1.61S96.93,202.39,97.64,202.39Z"/><path class="cls-1" d="M12.09,153c.7,0,.7-1.6,0-1.6S11.38,153,12.09,153Z"/><path class="cls-1" d="M66.41,225.21c.71,0,.71-1.6,0-1.6S65.71,225.21,66.41,225.21Z"/><path class="cls-1" d="M42.13,197.32c.7,0,.7-1.61,0-1.61S41.42,197.32,42.13,197.32Z"/><path class="cls-1" d="M124.82,99.25c.7,0,.7-1.61,0-1.61S124.11,99.25,124.82,99.25Z"/><path class="cls-1" d="M101.72,317.26c.71,0,.71-1.6,0-1.6S101,317.26,101.72,317.26Z"/><path class="cls-1" d="M23.66,213.27c.71,0,.71-1.6,0-1.6S23,213.27,23.66,213.27Z"/><path class="cls-1" d="M10.36,288.57s0,0,0,0S10.35,288.57,10.36,288.57Z"/><path class="cls-1" d="M104.62,248.78c.7,0,.7-1.6,0-1.6S103.91,248.78,104.62,248.78Z"/><path class="cls-1" d="M97.68,275.83c.7,0,.7-1.6,0-1.6S97,275.83,97.68,275.83Z"/><path class="cls-1" d="M73.39,218.35c.71,0,.71-1.61,0-1.61S72.68,218.35,73.39,218.35Z"/><path class="cls-1" d="M38.12,263.15c.7,0,.7-1.6,0-1.6S37.41,263.15,38.12,263.15Z"/><path class="cls-1" d="M56,307.11c.71,0,.71-1.6,0-1.6S55.34,307.11,56,307.11Z"/><path class="cls-1" d="M24.82,329.94c.7,0,.7-1.6,0-1.6S24.11,329.94,24.82,329.94Z"/><path class="cls-1" d="M.53,302c.71,0,.71-1.6,0-1.6S-.18,302,.53,302Z"/><path class="cls-1" d="M83.22,204c.71,0,.71-1.6,0-1.6S82.51,204,83.22,204Z"/><path class="cls-1" d="M177.69,371.81c.71,0,.71-1.6,0-1.6S177,371.81,177.69,371.81Z"/><path class="cls-1" d="M99.63,267.83c.7,0,.71-1.61,0-1.61S98.92,267.83,99.63,267.83Z"/><path class="cls-1" d="M86.33,343.12v0S86.32,343.12,86.33,343.12Z"/><path class="cls-1" d="M180.58,303.33c.71,0,.71-1.6,0-1.6S179.88,303.33,180.58,303.33Z"/><path class="cls-1" d="M173.64,330.39c.71,0,.71-1.61,0-1.61S172.94,330.39,173.64,330.39Z"/><path class="cls-1" d="M149.36,272.9c.7,0,.71-1.61,0-1.61S148.65,272.9,149.36,272.9Z"/><path class="cls-1" d="M114.08,317.7c.71,0,.71-1.6,0-1.6S113.38,317.7,114.08,317.7Z"/><path class="cls-1" d="M132,361.67c.71,0,.71-1.61,0-1.61S131.3,361.67,132,361.67Z"/><path class="cls-1" d="M100.78,384.49c.71,0,.71-1.6,0-1.6S100.08,384.49,100.78,384.49Z"/><path class="cls-1" d="M76.5,356.59c.7,0,.71-1.6,0-1.6S75.79,356.59,76.5,356.59Z"/><path class="cls-1" d="M159.19,258.53c.7,0,.71-1.61,0-1.61S158.48,258.53,159.19,258.53Z"/><path class="cls-1" d="M122,124.74c.71,0,.71-1.61,0-1.61S121.27,124.74,122,124.74Z"/><path class="cls-1" d="M43.92,20.75c.7,0,.7-1.6,0-1.6S43.21,20.75,43.92,20.75Z"/><path class="cls-1" d="M30.62,96h0S30.61,96,30.62,96Z"/><path class="cls-1" d="M124.87,56.26c.71,0,.71-1.6,0-1.6S124.16,56.26,124.87,56.26Z"/><path class="cls-1" d="M117.93,83.31c.71,0,.71-1.6,0-1.6S117.23,83.31,117.93,83.31Z"/><path class="cls-1" d="M93.65,25.82c.7,0,.7-1.6,0-1.6S92.94,25.82,93.65,25.82Z"/><path class="cls-1" d="M58.37,70.63c.71,0,.71-1.6,0-1.6S57.67,70.63,58.37,70.63Z"/><path class="cls-1" d="M76.3,114.59c.7,0,.7-1.6,0-1.6S75.59,114.59,76.3,114.59Z"/><path class="cls-1" d="M45.07,137.42c.71,0,.71-1.61,0-1.61S44.37,137.42,45.07,137.42Z"/><path class="cls-1" d="M20.79,109.52c.7,0,.7-1.6,0-1.6S20.08,109.52,20.79,109.52Z"/><path class="cls-1" d="M103.48,11.45c.7,0,.7-1.6,0-1.6S102.77,11.45,103.48,11.45Z"/><path class="cls-1" d="M294,135.32c.7,0,.7-1.6,0-1.6S293.29,135.32,294,135.32Z"/><path class="cls-1" d="M215.93,31.33c.71,0,.71-1.6,0-1.6S215.23,31.33,215.93,31.33Z"/><path class="cls-1" d="M202.63,106.63s0,0,0,0Z"/><path class="cls-1" d="M296.89,66.84c.7,0,.7-1.6,0-1.6S296.18,66.84,296.89,66.84Z"/><path class="cls-1" d="M290,93.89c.7,0,.71-1.6,0-1.6S289.24,93.89,290,93.89Z"/><path class="cls-1" d="M265.66,36.41c.71,0,.71-1.61,0-1.61S265,36.41,265.66,36.41Z"/><path class="cls-1" d="M230.39,81.21c.7,0,.71-1.6,0-1.6S229.68,81.21,230.39,81.21Z"/><path class="cls-1" d="M248.31,125.17c.71,0,.71-1.6,0-1.6S247.61,125.17,248.31,125.17Z"/><path class="cls-1" d="M217.09,148c.7,0,.71-1.6,0-1.6S216.38,148,217.09,148Z"/><path class="cls-1" d="M192.8,120.1c.71,0,.71-1.6,0-1.6S192.09,120.1,192.8,120.1Z"/><path class="cls-1" d="M275.49,22c.71,0,.71-1.6,0-1.6S274.79,22,275.49,22Z"/><path class="cls-1" d="M200.67,140.23c.7,0,.71-1.61,0-1.61S200,140.23,200.67,140.23Z"/><path class="cls-1" d="M122.6,36.24c.71,0,.71-1.6,0-1.6S121.9,36.24,122.6,36.24Z"/><path class="cls-1" d="M109.3,111.53s0,0,0,0Z"/><path class="cls-1" d="M203.56,71.75c.71,0,.71-1.61,0-1.61S202.85,71.75,203.56,71.75Z"/><path class="cls-1" d="M196.62,98.8c.71,0,.71-1.6,0-1.6S195.91,98.8,196.62,98.8Z"/><path class="cls-1" d="M172.33,41.31c.71,0,.71-1.6,0-1.6S171.63,41.31,172.33,41.31Z"/><path class="cls-1" d="M137.06,86.12c.71,0,.71-1.6,0-1.6S136.35,86.12,137.06,86.12Z"/><path class="cls-1" d="M155,130.08c.7,0,.7-1.6,0-1.6S154.28,130.08,155,130.08Z"/><path class="cls-1" d="M123.76,152.91c.71,0,.71-1.61,0-1.61S123.05,152.91,123.76,152.91Z"/><path class="cls-1" d="M99.47,125c.71,0,.71-1.6,0-1.6S98.77,125,99.47,125Z"/><path class="cls-1" d="M182.16,26.94c.71,0,.71-1.6,0-1.6S181.46,26.94,182.16,26.94Z"/><path class="cls-1" d="M186.21,179.51c.71,0,.71-1.61,0-1.61S185.51,179.51,186.21,179.51Z"/><path class="cls-1" d="M108.15,75.52c.7,0,.7-1.6,0-1.6S107.44,75.52,108.15,75.52Z"/><path class="cls-1" d="M94.85,150.81h0S94.84,150.81,94.85,150.81Z"/><path class="cls-1" d="M189.1,111c.71,0,.71-1.6,0-1.6S188.4,111,189.1,111Z"/><path class="cls-1" d="M182.16,138.08c.71,0,.71-1.6,0-1.6S181.46,138.08,182.16,138.08Z"/><path class="cls-1" d="M157.88,80.59c.7,0,.7-1.6,0-1.6S157.17,80.59,157.88,80.59Z"/><path class="cls-1" d="M122.6,125.4c.71,0,.71-1.6,0-1.6S121.9,125.4,122.6,125.4Z"/><path class="cls-1" d="M140.53,169.36c.71,0,.71-1.6,0-1.6S139.82,169.36,140.53,169.36Z"/><path class="cls-1" d="M109.3,192.19c.71,0,.71-1.61,0-1.61S108.6,192.19,109.3,192.19Z"/><path class="cls-1" d="M85,164.29c.7,0,.7-1.6,0-1.6S84.31,164.29,85,164.29Z"/><path class="cls-1" d="M167.71,66.22c.7,0,.7-1.6,0-1.6S167,66.22,167.71,66.22Z"/><path class="cls-1" d="M152.63,408.22c.7,0,.7-1.6,0-1.6S151.92,408.22,152.63,408.22Z"/><path class="cls-1" d="M74.56,304.24c.71,0,.71-1.61,0-1.61S73.86,304.24,74.56,304.24Z"/><path class="cls-1" d="M61.26,379.53s0,0,0,0Z"/><path class="cls-1" d="M155.52,339.74c.7,0,.71-1.6,0-1.6S154.81,339.74,155.52,339.74Z"/><path class="cls-1" d="M148.58,366.8c.71,0,.71-1.61,0-1.61S147.87,366.8,148.58,366.8Z"/><path class="cls-1" d="M124.29,309.31c.71,0,.71-1.61,0-1.61S123.59,309.31,124.29,309.31Z"/><path class="cls-1" d="M89,354.11c.71,0,.71-1.6,0-1.6S88.31,354.11,89,354.11Z"/><path class="cls-1" d="M107,398.08c.7,0,.7-1.61,0-1.61S106.24,398.08,107,398.08Z"/><path class="cls-1" d="M75.72,420.9c.71,0,.71-1.6,0-1.6S75,420.9,75.72,420.9Z"/><path class="cls-1" d="M51.43,393c.71,0,.71-1.6,0-1.6S50.73,393,51.43,393Z"/><path class="cls-1" d="M134.12,294.94c.71,0,.71-1.61,0-1.61S133.42,294.94,134.12,294.94Z"/><path class="cls-1" d="M801.58,443.3c.71,0,.71-1.6,0-1.6S800.87,443.3,801.58,443.3Z"/><path class="cls-1" d="M723.52,339.32c.7,0,.7-1.6,0-1.6S722.81,339.32,723.52,339.32Z"/><path class="cls-1" d="M710.22,414.61h0S710.21,414.61,710.22,414.61Z"/><path class="cls-1" d="M804.47,374.83c.71,0,.71-1.61,0-1.61S803.76,374.83,804.47,374.83Z"/><path class="cls-1" d="M797.53,401.88c.71,0,.71-1.6,0-1.6S796.83,401.88,797.53,401.88Z"/><path class="cls-1" d="M773.25,344.39c.7,0,.7-1.6,0-1.6S772.54,344.39,773.25,344.39Z"/><path class="cls-1" d="M738,389.2c.71,0,.71-1.6,0-1.6S737.26,389.2,738,389.2Z"/><path class="cls-1" d="M755.9,433.16c.7,0,.7-1.6,0-1.6S755.19,433.16,755.9,433.16Z"/><path class="cls-1" d="M724.67,456c.71,0,.71-1.61,0-1.61S724,456,724.67,456Z"/><path class="cls-1" d="M700.39,428.09c.7,0,.7-1.61,0-1.61S699.68,428.09,700.39,428.09Z"/><path class="cls-1" d="M783.08,330c.7,0,.7-1.6,0-1.6S782.37,330,783.08,330Z"/><path class="cls-1" d="M732.19,400.5c.71,0,.71-1.61,0-1.61S731.49,400.5,732.19,400.5Z"/><path class="cls-1" d="M654.13,296.51c.71,0,.71-1.6,0-1.6S653.42,296.51,654.13,296.51Z"/><path class="cls-1" d="M640.83,371.8s0,0,0,0S640.82,371.8,640.83,371.8Z"/><path class="cls-1" d="M735.09,332c.7,0,.7-1.6,0-1.6S734.38,332,735.09,332Z"/><path class="cls-1" d="M728.15,359.07c.7,0,.7-1.6,0-1.6S727.44,359.07,728.15,359.07Z"/><path class="cls-1" d="M703.86,301.58c.71,0,.71-1.6,0-1.6S703.15,301.58,703.86,301.58Z"/><path class="cls-1" d="M668.59,346.39c.7,0,.7-1.6,0-1.6S667.88,346.39,668.59,346.39Z"/><path class="cls-1" d="M686.51,390.35c.71,0,.71-1.6,0-1.6S685.8,390.35,686.51,390.35Z"/><path class="cls-1" d="M655.29,413.18c.7,0,.7-1.61,0-1.61S654.58,413.18,655.29,413.18Z"/><path class="cls-1" d="M631,385.28c.71,0,.71-1.6,0-1.6S630.29,385.28,631,385.28Z"/><path class="cls-1" d="M713.69,287.21c.71,0,.71-1.6,0-1.6S713,287.21,713.69,287.21Z"/><path class="cls-1" d="M766.31,294.54c.7,0,.7-1.6,0-1.6S765.6,294.54,766.31,294.54Z"/><path class="cls-1" d="M688.24,190.55c.71,0,.71-1.6,0-1.6S687.53,190.55,688.24,190.55Z"/><path class="cls-1" d="M674.94,265.85s0,0,0,0Z"/><path class="cls-1" d="M769.2,226.06c.7,0,.7-1.6,0-1.6S768.49,226.06,769.2,226.06Z"/><path class="cls-1" d="M762.26,253.11c.7,0,.71-1.6,0-1.6S761.55,253.11,762.26,253.11Z"/><path class="cls-1" d="M738,195.63c.71,0,.71-1.61,0-1.61S737.26,195.63,738,195.63Z"/><path class="cls-1" d="M702.7,240.43c.7,0,.7-1.6,0-1.6S702,240.43,702.7,240.43Z"/><path class="cls-1" d="M720.62,284.39c.71,0,.71-1.6,0-1.6S719.92,284.39,720.62,284.39Z"/><path class="cls-1" d="M689.4,307.22c.7,0,.71-1.6,0-1.6S688.69,307.22,689.4,307.22Z"/><path class="cls-1" d="M665.11,279.32c.71,0,.71-1.6,0-1.6S664.4,279.32,665.11,279.32Z"/><path class="cls-1" d="M747.8,181.25c.71,0,.71-1.6,0-1.6S747.1,181.25,747.8,181.25Z"/><path class="cls-1" d="M767.46,193.12c.71,0,.71-1.6,0-1.6S766.76,193.12,767.46,193.12Z"/><path class="cls-1" d="M689.4,89.13c.7,0,.71-1.6,0-1.6S688.69,89.13,689.4,89.13Z"/><path class="cls-1" d="M676.1,164.43v0S676.09,164.43,676.1,164.43Z"/><path class="cls-1" d="M770.35,124.64c.71,0,.71-1.6,0-1.6S769.65,124.64,770.35,124.64Z"/><path class="cls-1" d="M763.41,151.7c.71,0,.71-1.61,0-1.61S762.71,151.7,763.41,151.7Z"/><path class="cls-1" d="M739.13,94.21c.7,0,.7-1.61,0-1.61S738.42,94.21,739.13,94.21Z"/><path class="cls-1" d="M703.85,139c.71,0,.71-1.6,0-1.6S703.15,139,703.85,139Z"/><path class="cls-1" d="M721.78,183c.71,0,.71-1.61,0-1.61S721.07,183,721.78,183Z"/><path class="cls-1" d="M690.55,205.8c.71,0,.71-1.6,0-1.6S689.85,205.8,690.55,205.8Z"/><path class="cls-1" d="M666.27,177.9c.7,0,.7-1.6,0-1.6S665.56,177.9,666.27,177.9Z"/><path class="cls-1" d="M749,79.84c.7,0,.71-1.61,0-1.61S748.25,79.84,749,79.84Z"/><path class="cls-1" d="M834.55,254c.7,0,.7-1.6,0-1.6S833.84,254,834.55,254Z"/><path class="cls-1" d="M756.48,150c.71,0,.71-1.61,0-1.61S755.77,150,756.48,150Z"/><path class="cls-1" d="M743.18,225.3s0,0,0,0S743.17,225.3,743.18,225.3Z"/><path class="cls-1" d="M837.44,185.51c.7,0,.7-1.6,0-1.6S836.73,185.51,837.44,185.51Z"/><path class="cls-1" d="M830.5,212.57c.7,0,.7-1.61,0-1.61S829.79,212.57,830.5,212.57Z"/><path class="cls-1" d="M806.21,155.08c.71,0,.71-1.61,0-1.61S805.5,155.08,806.21,155.08Z"/><path class="cls-1" d="M770.94,199.88c.7,0,.7-1.6,0-1.6S770.23,199.88,770.94,199.88Z"/><path class="cls-1" d="M788.86,243.85c.71,0,.71-1.61,0-1.61S788.16,243.85,788.86,243.85Z"/><path class="cls-1" d="M757.64,266.67c.7,0,.7-1.6,0-1.6S756.93,266.67,757.64,266.67Z"/><path class="cls-1" d="M733.35,238.77c.71,0,.71-1.6,0-1.6S732.64,238.77,733.35,238.77Z"/><path class="cls-1" d="M816,140.71c.71,0,.71-1.61,0-1.61S815.33,140.71,816,140.71Z"/><path class="cls-1" d="M811.41,428.93c.71,0,.71-1.6,0-1.6S810.7,428.93,811.41,428.93Z"/><path class="cls-1" d="M733.35,325c.7,0,.7-1.61,0-1.61S732.64,325,733.35,325Z"/><path class="cls-1" d="M720.05,400.24h0S720,400.24,720.05,400.24Z"/><path class="cls-1" d="M814.3,360.45c.71,0,.71-1.6,0-1.6S813.59,360.45,814.3,360.45Z"/><path class="cls-1" d="M807.36,387.51c.71,0,.71-1.61,0-1.61S806.66,387.51,807.36,387.51Z"/><path class="cls-1" d="M783.08,330c.7,0,.7-1.6,0-1.6S782.37,330,783.08,330Z"/><path class="cls-1" d="M747.8,374.83c.71,0,.71-1.61,0-1.61S747.1,374.83,747.8,374.83Z"/><path class="cls-1" d="M765.73,418.79c.7,0,.7-1.61,0-1.61S765,418.79,765.73,418.79Z"/><path class="cls-1" d="M734.5,441.61c.71,0,.71-1.6,0-1.6S733.8,441.61,734.5,441.61Z"/><path class="cls-1" d="M710.22,413.72c.7,0,.7-1.61,0-1.61S709.51,413.72,710.22,413.72Z"/><path class="cls-1" d="M792.91,315.65c.7,0,.7-1.61,0-1.61S792.2,315.65,792.91,315.65Z"/><path class="cls-1" d="M832.23,293.44c.7,0,.7-1.61,0-1.61S831.52,293.44,832.23,293.44Z"/><path class="cls-1" d="M754.16,189.45c.71,0,.71-1.6,0-1.6S753.46,189.45,754.16,189.45Z"/><path class="cls-1" d="M740.86,264.74s0,0,0,0Z"/><path class="cls-1" d="M835.12,225c.7,0,.71-1.61,0-1.61S834.41,225,835.12,225Z"/><path class="cls-1" d="M828.18,252c.71,0,.71-1.6,0-1.6S827.47,252,828.18,252Z"/><path class="cls-1" d="M803.89,194.52c.71,0,.71-1.6,0-1.6S803.19,194.52,803.89,194.52Z"/><path class="cls-1" d="M768.62,239.33c.7,0,.71-1.6,0-1.6S767.91,239.33,768.62,239.33Z"/><path class="cls-1" d="M786.55,283.29c.7,0,.7-1.6,0-1.6S785.84,283.29,786.55,283.29Z"/><path class="cls-1" d="M755.32,306.12c.7,0,.71-1.61,0-1.61S754.61,306.12,755.32,306.12Z"/><path class="cls-1" d="M731,278.22c.71,0,.71-1.6,0-1.6S730.33,278.22,731,278.22Z"/><path class="cls-1" d="M813.72,180.15c.71,0,.71-1.6,0-1.6S813,180.15,813.72,180.15Z"/><path class="cls-1" d="M855.36,247.54c.71,0,.71-1.61,0-1.61S854.66,247.54,855.36,247.54Z"/><path class="cls-1" d="M777.3,143.55c.7,0,.7-1.6,0-1.6S776.59,143.55,777.3,143.55Z"/><path class="cls-1" d="M764,218.84h0S764,218.84,764,218.84Z"/><path class="cls-1" d="M858.25,179.06c.71,0,.71-1.61,0-1.61S857.55,179.06,858.25,179.06Z"/><path class="cls-1" d="M851.31,206.11c.71,0,.71-1.6,0-1.6S850.61,206.11,851.31,206.11Z"/><path class="cls-1" d="M827,148.62c.7,0,.7-1.6,0-1.6S826.32,148.62,827,148.62Z"/><path class="cls-1" d="M791.75,193.43c.71,0,.71-1.6,0-1.6S791.05,193.43,791.75,193.43Z"/><path class="cls-1" d="M809.68,237.39c.71,0,.71-1.6,0-1.6S809,237.39,809.68,237.39Z"/><path class="cls-1" d="M778.45,260.22c.71,0,.71-1.61,0-1.61S777.75,260.22,778.45,260.22Z"/><path class="cls-1" d="M754.17,232.32c.7,0,.7-1.61,0-1.61S753.46,232.32,754.17,232.32Z"/><path class="cls-1" d="M836.86,134.25c.7,0,.71-1.6,0-1.6S836.15,134.25,836.86,134.25Z"/><path class="cls-1" d="M680.53,128.41c.71,0,.71-1.6,0-1.6S679.82,128.41,680.53,128.41Z"/><path class="cls-1" d="M602.47,24.43c.7,0,.7-1.6,0-1.6S601.76,24.43,602.47,24.43Z"/><path class="cls-1" d="M589.17,99.72h0S589.16,99.72,589.17,99.72Z"/><path class="cls-1" d="M683.42,59.94c.71,0,.71-1.61,0-1.61S682.72,59.94,683.42,59.94Z"/><path class="cls-1" d="M676.48,87c.71,0,.71-1.6,0-1.6S675.78,87,676.48,87Z"/><path class="cls-1" d="M652.2,29.5c.7,0,.7-1.6,0-1.6S651.49,29.5,652.2,29.5Z"/><path class="cls-1" d="M616.92,74.31c.71,0,.71-1.6,0-1.6S616.22,74.31,616.92,74.31Z"/><path class="cls-1" d="M634.85,118.27c.71,0,.71-1.6,0-1.6S634.14,118.27,634.85,118.27Z"/><path class="cls-1" d="M603.62,141.1c.71,0,.71-1.61,0-1.61S602.92,141.1,603.62,141.1Z"/><path class="cls-1" d="M579.34,113.2c.7,0,.7-1.61,0-1.61S578.63,113.2,579.34,113.2Z"/><path class="cls-1" d="M662,15.13c.7,0,.7-1.6,0-1.6S661.32,15.13,662,15.13Z"/><path class="cls-1" d="M279.65,238.06s0,0,0,0Z"/><path class="cls-1" d="M285.43,285.4s0,0,0,0Z"/><path class="cls-1" d="M303.17,315.51c.7,0,.7-1.61,0-1.61S302.46,315.51,303.17,315.51Z"/><path class="cls-1" d="M196.58,273c.7,0,.7-1.61,0-1.61S195.87,273,196.58,273Z"/><path class="cls-1" d="M209.3,367.64c.7,0,.7-1.6,0-1.6S208.59,367.64,209.3,367.64Z"/><path class="cls-1" d="M362.53,201.94c.71,0,.71-1.6,0-1.6S361.83,201.94,362.53,201.94Z"/><path class="cls-1" d="M345.76,222.23c.71,0,.71-1.6,0-1.6S345.06,222.23,345.76,222.23Z"/><path class="cls-1" d="M238.21,174.89c.71,0,.71-1.61,0-1.61S237.5,174.89,238.21,174.89Z"/><path class="cls-1" d="M118.51,169c.71,0,.71-1.6,0-1.6S117.8,169,118.51,169Z"/><path class="cls-1" d="M105.21,244.26s0,0,0,0S105.2,244.26,105.21,244.26Z"/><path class="cls-1" d="M113.88,360.88c.71,0,.71-1.61,0-1.61S113.18,360.88,113.88,360.88Z"/><path class="cls-1" d="M247.46,405.68c.71,0,.71-1.6,0-1.6S246.75,405.68,247.46,405.68Z"/><path class="cls-1" d="M344.61,467.4c.7,0,.71-1.6,0-1.6S343.9,467.4,344.61,467.4Z"/><path class="cls-1" d="M362,511.36c.7,0,.7-1.6,0-1.6S361.25,511.36,362,511.36Z"/><path class="cls-1" d="M255,242.52c.7,0,.71-1.6,0-1.6S254.27,242.52,255,242.52Z"/><path class="cls-1" d="M246.88,297.47c.71,0,.71-1.6,0-1.6S246.18,297.47,246.88,297.47Z"/><path class="cls-1" d="M272.9,348.2c.71,0,.71-1.61,0-1.61S272.2,348.2,272.9,348.2Z"/><path class="cls-1" d="M329.57,339.74c.71,0,.71-1.6,0-1.6S328.87,339.74,329.57,339.74Z"/><path class="cls-1" d="M338.25,278.87c.7,0,.7-1.6,0-1.6S337.54,278.87,338.25,278.87Z"/><path class="cls-1" d="M299.5,229c.71,0,.71-1.6,0-1.6S298.8,229,299.5,229Z"/><path class="cls-1" d="M286.78,189.26c.71,0,.71-1.6,0-1.6S286.08,189.26,286.78,189.26Z"/><path class="cls-1" d="M199.47,204.48c.7,0,.7-1.61,0-1.61S198.76,204.48,199.47,204.48Z"/><path class="cls-1" d="M216.24,271.26c.7,0,.7-1.6,0-1.6S215.53,271.26,216.24,271.26Z"/><path class="cls-1" d="M192.53,231.53c.7,0,.7-1.6,0-1.6S191.82,231.53,192.53,231.53Z"/><path class="cls-1" d="M168.24,174c.71,0,.71-1.6,0-1.6S167.53,174,168.24,174Z"/><path class="cls-1" d="M133,218.85c.7,0,.7-1.6,0-1.6S132.26,218.85,133,218.85Z"/><path class="cls-1" d="M150.89,262.81c.71,0,.71-1.6,0-1.6S150.19,262.81,150.89,262.81Z"/><path class="cls-1" d="M159,344.81c.7,0,.71-1.6,0-1.6S158.28,344.81,159,344.81Z"/><path class="cls-1" d="M117.93,396.38c.71,0,.71-1.6,0-1.6S117.23,396.38,117.93,396.38Z"/><path class="cls-1" d="M80.92,376.94c.71,0,.71-1.6,0-1.6S80.22,376.94,80.92,376.94Z"/><path class="cls-1" d="M72.83,280.56c.7,0,.71-1.6,0-1.6S72.12,280.56,72.83,280.56Z"/><path class="cls-1" d="M105.21,316.07c.71,0,.71-1.6,0-1.6S104.5,316.07,105.21,316.07Z"/><path class="cls-1" d="M119.67,285.64c.7,0,.7-1.61,0-1.61S119,285.64,119.67,285.64Z"/><path class="cls-1" d="M95.38,257.74c.71,0,.71-1.61,0-1.61S94.67,257.74,95.38,257.74Z"/><path class="cls-1" d="M67.05,161.36c.7,0,.7-1.6,0-1.6S66.34,161.36,67.05,161.36Z"/><path class="cls-1" d="M60.11,218.9h0S60.1,218.9,60.11,218.9Z"/><path class="cls-1" d="M153.21,406.53c.7,0,.7-1.6,0-1.6S152.5,406.53,153.21,406.53Z"/><path class="cls-1" d="M205.83,461.48c.7,0,.7-1.6,0-1.6S205.12,461.48,205.83,461.48Z"/><path class="cls-1" d="M202.94,493.61c.7,0,.7-1.61,0-1.61S202.23,493.61,202.94,493.61Z"/><path class="cls-1" d="M166.51,475.9h0S166.5,475.9,166.51,475.9Z"/><path class="cls-1" d="M239.37,493.61c.7,0,.7-1.61,0-1.61S238.66,493.61,239.37,493.61Z"/><path class="cls-1" d="M314.54,420.9c.7,0,.71-1.6,0-1.6S313.83,420.9,314.54,420.9Z"/><path class="cls-1" d="M365.43,376.09c.7,0,.7-1.6,0-1.6S364.72,376.09,365.43,376.09Z"/><path class="cls-1" d="M379.88,173.2c.71,0,.71-1.61,0-1.61S379.18,173.2,379.88,173.2Z"/><path class="cls-1" d="M356.75,279.72c.71,0,.71-1.61,0-1.61S356.05,279.72,356.75,279.72Z"/><path class="cls-1" d="M273.48,258.58c.71,0,.71-1.6,0-1.6S272.78,258.58,273.48,258.58Z"/><path class="cls-1" d="M249.77,155.44c.71,0,.71-1.6,0-1.6S249.07,155.44,249.77,155.44Z"/><path class="cls-1" d="M178.07,159.67c.71,0,.71-1.6,0-1.6S177.36,159.67,178.07,159.67Z"/><path class="cls-1" d="M643.82,243.44h0S643.81,243.44,643.82,243.44Z"/><path class="cls-1" d="M649.6,290.79s0,0,0,0S649.59,290.79,649.6,290.79Z"/><path class="cls-1" d="M667.33,320.89c.71,0,.71-1.61,0-1.61S666.63,320.89,667.33,320.89Z"/><path class="cls-1" d="M560.74,278.34c.71,0,.71-1.61,0-1.61S560,278.34,560.74,278.34Z"/><path class="cls-1" d="M573.46,373c.71,0,.71-1.6,0-1.6S572.76,373,573.46,373Z"/><path class="cls-1" d="M726.7,207.32c.71,0,.71-1.6,0-1.6S726,207.32,726.7,207.32Z"/><path class="cls-1" d="M709.93,227.61c.71,0,.71-1.6,0-1.6S709.22,227.61,709.93,227.61Z"/><path class="cls-1" d="M602.38,180.27c.7,0,.7-1.6,0-1.6S601.67,180.27,602.38,180.27Z"/><path class="cls-1" d="M482.68,174.35c.7,0,.7-1.6,0-1.6S482,174.35,482.68,174.35Z"/><path class="cls-1" d="M469.38,249.64h0S469.37,249.64,469.38,249.64Z"/><path class="cls-1" d="M478.05,366.26c.71,0,.71-1.61,0-1.61S477.34,366.26,478.05,366.26Z"/><path class="cls-1" d="M611.63,411.06c.7,0,.7-1.6,0-1.6S610.92,411.06,611.63,411.06Z"/><path class="cls-1" d="M708.77,472.78c.71,0,.71-1.6,0-1.6S708.07,472.78,708.77,472.78Z"/><path class="cls-1" d="M726.12,516.74c.71,0,.71-1.6,0-1.6S725.42,516.74,726.12,516.74Z"/><path class="cls-1" d="M619.15,247.9c.7,0,.7-1.6,0-1.6S618.44,247.9,619.15,247.9Z"/><path class="cls-1" d="M611.05,302.85c.71,0,.71-1.6,0-1.6S610.34,302.85,611.05,302.85Z"/><path class="cls-1" d="M637.07,353.58c.71,0,.71-1.61,0-1.61S636.36,353.58,637.07,353.58Z"/><path class="cls-1" d="M693.74,345.12c.71,0,.71-1.6,0-1.6S693,345.12,693.74,345.12Z"/><path class="cls-1" d="M702.41,284.25c.71,0,.71-1.6,0-1.6S701.71,284.25,702.41,284.25Z"/><path class="cls-1" d="M663.67,234.37c.71,0,.71-1.6,0-1.6S663,234.37,663.67,234.37Z"/><path class="cls-1" d="M651,194.64c.7,0,.71-1.6,0-1.6S650.24,194.64,651,194.64Z"/><path class="cls-1" d="M563.63,209.86c.71,0,.71-1.61,0-1.61S562.93,209.86,563.63,209.86Z"/><path class="cls-1" d="M580.4,276.64c.71,0,.71-1.6,0-1.6S579.7,276.64,580.4,276.64Z"/><path class="cls-1" d="M556.69,236.91c.71,0,.71-1.6,0-1.6S556,236.91,556.69,236.91Z"/><path class="cls-1" d="M532.41,179.42c.7,0,.7-1.6,0-1.6S531.7,179.42,532.41,179.42Z"/><path class="cls-1" d="M497.13,224.23c.71,0,.71-1.6,0-1.6S496.43,224.23,497.13,224.23Z"/><path class="cls-1" d="M515.06,268.19c.7,0,.71-1.6,0-1.6S514.35,268.19,515.06,268.19Z"/><path class="cls-1" d="M523.15,350.2c.71,0,.71-1.61,0-1.61S522.45,350.2,523.15,350.2Z"/><path class="cls-1" d="M482.1,401.77c.7,0,.71-1.61,0-1.61S481.39,401.77,482.1,401.77Z"/><path class="cls-1" d="M445.09,382.32c.71,0,.71-1.6,0-1.6S444.38,382.32,445.09,382.32Z"/><path class="cls-1" d="M437,285.94c.71,0,.71-1.6,0-1.6S436.29,285.94,437,285.94Z"/><path class="cls-1" d="M469.38,321.45c.7,0,.7-1.6,0-1.6S468.67,321.45,469.38,321.45Z"/><path class="cls-1" d="M483.83,291c.71,0,.71-1.61,0-1.61S483.13,291,483.83,291Z"/><path class="cls-1" d="M459.55,263.12c.7,0,.7-1.61,0-1.61S458.84,263.12,459.55,263.12Z"/><path class="cls-1" d="M431.21,166.74c.71,0,.71-1.6,0-1.6S430.51,166.74,431.21,166.74Z"/><path class="cls-1" d="M424.27,224.28s0,0,0,0Z"/><path class="cls-1" d="M517.37,411.91c.71,0,.71-1.6,0-1.6S516.67,411.91,517.37,411.91Z"/><path class="cls-1" d="M570,466.86c.71,0,.71-1.6,0-1.6S569.29,466.86,570,466.86Z"/><path class="cls-1" d="M567.1,499c.71,0,.71-1.61,0-1.61S566.4,499,567.1,499Z"/><path class="cls-1" d="M530.67,481.28s0,0,0,0Z"/><path class="cls-1" d="M603.53,499c.71,0,.71-1.61,0-1.61S602.83,499,603.53,499Z"/><path class="cls-1" d="M678.71,426.28c.7,0,.7-1.6,0-1.6S678,426.28,678.71,426.28Z"/><path class="cls-1" d="M729.59,381.48c.71,0,.71-1.61,0-1.61S728.89,381.48,729.59,381.48Z"/><path class="cls-1" d="M744.05,178.58c.7,0,.71-1.61,0-1.61S743.34,178.58,744.05,178.58Z"/><path class="cls-1" d="M720.92,285.1c.7,0,.7-1.6,0-1.6S720.21,285.1,720.92,285.1Z"/><path class="cls-1" d="M637.65,264c.7,0,.71-1.6,0-1.6S636.94,264,637.65,264Z"/><path class="cls-1" d="M613.94,160.82c.71,0,.71-1.6,0-1.6S613.23,160.82,613.94,160.82Z"/><path class="cls-1" d="M542.24,165.05c.7,0,.7-1.6,0-1.6S541.53,165.05,542.24,165.05Z"/><path class="cls-1" d="M459.74,147.2s0,0,0,0S459.73,147.2,459.74,147.2Z"/><path class="cls-1" d="M465.52,194.55s0,0,0,0Z"/><path class="cls-1" d="M483.26,224.65c.7,0,.7-1.6,0-1.6S482.55,224.65,483.26,224.65Z"/><path class="cls-1" d="M376.66,182.1c.71,0,.71-1.61,0-1.61S376,182.1,376.66,182.1Z"/><path class="cls-1" d="M389.39,276.78c.7,0,.7-1.6,0-1.6S388.68,276.78,389.39,276.78Z"/><path class="cls-1" d="M542.62,111.08c.71,0,.71-1.6,0-1.6S541.92,111.08,542.62,111.08Z"/><path class="cls-1" d="M525.85,131.37c.71,0,.71-1.6,0-1.6S525.15,131.37,525.85,131.37Z"/><path class="cls-1" d="M418.3,84c.7,0,.7-1.6,0-1.6S417.59,84,418.3,84Z"/><path class="cls-1" d="M298.6,78.11c.7,0,.71-1.6,0-1.6S297.89,78.11,298.6,78.11Z"/><path class="cls-1" d="M285.3,153.4s0,0,0,0S285.29,153.4,285.3,153.4Z"/><path class="cls-1" d="M294,270c.71,0,.71-1.6,0-1.6S293.27,270,294,270Z"/><path class="cls-1" d="M427.55,314.83c.71,0,.71-1.61,0-1.61S426.84,314.83,427.55,314.83Z"/><path class="cls-1" d="M524.7,376.54c.7,0,.7-1.6,0-1.6S524,376.54,524.7,376.54Z"/><path class="cls-1" d="M542,420.5c.71,0,.71-1.6,0-1.6S541.34,420.5,542,420.5Z"/><path class="cls-1" d="M435.07,151.66c.7,0,.7-1.6,0-1.6S434.36,151.66,435.07,151.66Z"/><path class="cls-1" d="M427,206.61c.71,0,.71-1.6,0-1.6S426.26,206.61,427,206.61Z"/><path class="cls-1" d="M453,257.34c.71,0,.71-1.6,0-1.6S452.29,257.34,453,257.34Z"/><path class="cls-1" d="M509.66,248.88c.71,0,.71-1.6,0-1.6S509,248.88,509.66,248.88Z"/><path class="cls-1" d="M518.34,188c.7,0,.7-1.61,0-1.61S517.63,188,518.34,188Z"/><path class="cls-1" d="M479.59,138.14c.71,0,.71-1.61,0-1.61S478.89,138.14,479.59,138.14Z"/><path class="cls-1" d="M466.87,98.4c.71,0,.71-1.6,0-1.6S466.16,98.4,466.87,98.4Z"/><path class="cls-1" d="M379.55,113.62c.71,0,.71-1.6,0-1.6S378.85,113.62,379.55,113.62Z"/><path class="cls-1" d="M396.32,180.41c.71,0,.71-1.61,0-1.61S395.62,180.41,396.32,180.41Z"/><path class="cls-1" d="M372.62,140.67c.7,0,.7-1.6,0-1.6S371.91,140.67,372.62,140.67Z"/><path class="cls-1" d="M348.33,83.19c.7,0,.71-1.61,0-1.61S347.62,83.19,348.33,83.19Z"/><path class="cls-1" d="M313.06,128c.7,0,.7-1.6,0-1.6S312.35,128,313.06,128Z"/><path class="cls-1" d="M331,172c.71,0,.71-1.6,0-1.6S330.27,172,331,172Z"/><path class="cls-1" d="M339.08,254c.7,0,.7-1.61,0-1.61S338.37,254,339.08,254Z"/><path class="cls-1" d="M298,305.53c.71,0,.71-1.61,0-1.61S297.31,305.53,298,305.53Z"/><path class="cls-1" d="M261,286.08c.71,0,.71-1.6,0-1.6S260.31,286.08,261,286.08Z"/><path class="cls-1" d="M252.92,189.71c.7,0,.7-1.61,0-1.61S252.21,189.71,252.92,189.71Z"/><path class="cls-1" d="M285.3,225.21c.7,0,.71-1.6,0-1.6S284.59,225.21,285.3,225.21Z"/><path class="cls-1" d="M299.76,194.78c.7,0,.7-1.6,0-1.6S299.05,194.78,299.76,194.78Z"/><path class="cls-1" d="M275.47,166.88c.7,0,.71-1.6,0-1.6S274.76,166.88,275.47,166.88Z"/><path class="cls-1" d="M247.13,70.5c.71,0,.71-1.6,0-1.6S246.43,70.5,247.13,70.5Z"/><path class="cls-1" d="M240.2,128h0S240.19,128,240.2,128Z"/><path class="cls-1" d="M333.29,315.67c.71,0,.71-1.6,0-1.6S332.59,315.67,333.29,315.67Z"/><path class="cls-1" d="M385.92,370.62c.7,0,.7-1.6,0-1.6S385.21,370.62,385.92,370.62Z"/><path class="cls-1" d="M383,402.75c.71,0,.71-1.6,0-1.6S382.32,402.75,383,402.75Z"/><path class="cls-1" d="M346.59,385.05s0,0,0,0Z"/><path class="cls-1" d="M419.45,402.75c.71,0,.71-1.6,0-1.6S418.75,402.75,419.45,402.75Z"/><path class="cls-1" d="M494.63,330c.7,0,.7-1.6,0-1.6S493.92,330,494.63,330Z"/><path class="cls-1" d="M545.51,285.24c.71,0,.71-1.61,0-1.61S544.81,285.24,545.51,285.24Z"/><path class="cls-1" d="M560,82.34c.71,0,.71-1.6,0-1.6S559.26,82.34,560,82.34Z"/><path class="cls-1" d="M536.84,188.86c.71,0,.71-1.6,0-1.6S536.13,188.86,536.84,188.86Z"/><path class="cls-1" d="M453.57,167.73c.71,0,.71-1.61,0-1.61S452.86,167.73,453.57,167.73Z"/><path class="cls-1" d="M635.14,51.31h0S635.13,51.31,635.14,51.31Z"/><path class="cls-1" d="M640.92,98.65s0,0,0,0Z"/><path class="cls-1" d="M756.57,177.79c.71,0,.71-1.6,0-1.6S755.87,177.79,756.57,177.79Z"/><path class="cls-1" d="M658.65,128.76c.71,0,.71-1.61,0-1.61S658,128.76,658.65,128.76Z"/><path class="cls-1" d="M748.67,51.54c.71,0,.71-1.6,0-1.6S748,51.54,748.67,51.54Z"/><path class="cls-1" d="M603,218.93c.7,0,.71-1.6,0-1.6S602.24,218.93,603,218.93Z"/><path class="cls-1" d="M700.1,280.65c.7,0,.7-1.61,0-1.61S699.39,280.65,700.1,280.65Z"/><path class="cls-1" d="M717.44,324.61c.71,0,.71-1.6,0-1.6S716.74,324.61,717.44,324.61Z"/><path class="cls-1" d="M768.91,268.81c.7,0,.71-1.6,0-1.6S768.2,268.81,768.91,268.81Z"/><path class="cls-1" d="M770.06,98.88c.71,0,.71-1.6,0-1.6S769.36,98.88,770.06,98.88Z"/><path class="cls-1" d="M610.47,55.77c.7,0,.7-1.6,0-1.6S609.76,55.77,610.47,55.77Z"/><path class="cls-1" d="M602.37,110.72c.71,0,.71-1.6,0-1.6S601.66,110.72,602.37,110.72Z"/><path class="cls-1" d="M628.39,161.44c.71,0,.71-1.6,0-1.6S627.69,161.44,628.39,161.44Z"/><path class="cls-1" d="M685.06,153c.71,0,.71-1.6,0-1.6S684.35,153,685.06,153Z"/><path class="cls-1" d="M693.74,92.12c.7,0,.7-1.6,0-1.6S693,92.12,693.74,92.12Z"/><path class="cls-1" d="M670,234.15c.7,0,.7-1.6,0-1.6S669.32,234.15,670,234.15Z"/><path class="cls-1" d="M720.91,189.34c.71,0,.71-1.6,0-1.6S720.21,189.34,720.91,189.34Z"/><path class="cls-1" d="M770.64,125.94c.71,0,.71-1.61,0-1.61S769.94,125.94,770.64,125.94Z"/><path class="cls-1" d="M712.24,93c.7,0,.71-1.61,0-1.61S711.53,93,712.24,93Z"/><path class="cls-1" d="M629,71.83c.71,0,.71-1.6,0-1.6S628.26,71.83,629,71.83Z"/><path class="cls-1" d="M600.48,331c.71,0,.71-1.6,0-1.6S599.77,331,600.48,331Z"/><path class="cls-1" d="M614.94,128.05c.7,0,.7-1.6,0-1.6S614.23,128.05,614.94,128.05Z"/><path class="cls-1" d="M717.73,129.2c.71,0,.71-1.6,0-1.6S717,129.2,717.73,129.2Z"/><path class="cls-1" d="M704.43,204.5s0,0,0,0Z"/><path class="cls-1" d="M713.11,321.11c.7,0,.7-1.6,0-1.6S712.4,321.11,713.11,321.11Z"/><path class="cls-1" d="M767.46,134.28c.71,0,.71-1.61,0-1.61S766.76,134.28,767.46,134.28Z"/><path class="cls-1" d="M732.19,179.08c.7,0,.71-1.6,0-1.6S731.48,179.08,732.19,179.08Z"/><path class="cls-1" d="M750.11,223.05c.71,0,.71-1.61,0-1.61S749.41,223.05,750.11,223.05Z"/><path class="cls-1" d="M758.21,305.05c.71,0,.71-1.6,0-1.6S757.5,305.05,758.21,305.05Z"/><path class="cls-1" d="M717.15,356.62c.71,0,.71-1.6,0-1.6S716.45,356.62,717.15,356.62Z"/><path class="cls-1" d="M680.15,337.18c.7,0,.7-1.61,0-1.61S679.44,337.18,680.15,337.18Z"/><path class="cls-1" d="M672.05,240.8c.71,0,.71-1.6,0-1.6S671.34,240.8,672.05,240.8Z"/><path class="cls-1" d="M704.43,276.31c.71,0,.71-1.61,0-1.61S703.73,276.31,704.43,276.31Z"/><path class="cls-1" d="M718.89,245.87c.7,0,.71-1.6,0-1.6S718.18,245.87,718.89,245.87Z"/><path class="cls-1" d="M694.6,218c.71,0,.71-1.6,0-1.6S693.9,218,694.6,218Z"/><path class="cls-1" d="M666.27,121.6c.7,0,.7-1.61,0-1.61S665.56,121.6,666.27,121.6Z"/><path class="cls-1" d="M659.33,179.13h0S659.32,179.13,659.33,179.13Z"/><path class="cls-1" d="M752.43,366.76c.7,0,.7-1.6,0-1.6S751.72,366.76,752.43,366.76Z"/><path class="cls-1" d="M765.73,436.14v0S765.72,436.14,765.73,436.14Z"/><path class="cls-1" d="M777.29,119.91c.71,0,.71-1.61,0-1.61S776.59,119.91,777.29,119.91Z"/><path class="cls-1" d="M694.8,102.06h0S694.79,102.06,694.8,102.06Z"/><path class="cls-1" d="M700.58,149.4h0S700.57,149.4,700.58,149.4Z"/><path class="cls-1" d="M718.31,179.5c.71,0,.71-1.6,0-1.6S717.6,179.5,718.31,179.5Z"/><path class="cls-1" d="M611.72,137c.7,0,.71-1.6,0-1.6S611,137,611.72,137Z"/><path class="cls-1" d="M624.44,231.64c.71,0,.71-1.61,0-1.61S623.73,231.64,624.44,231.64Z"/><path class="cls-1" d="M777.68,65.94c.7,0,.71-1.61,0-1.61S777,65.94,777.68,65.94Z"/><path class="cls-1" d="M760.91,86.23c.7,0,.71-1.61,0-1.61S760.2,86.23,760.91,86.23Z"/><path class="cls-1" d="M662.61,269.68c.7,0,.7-1.6,0-1.6S661.9,269.68,662.61,269.68Z"/><path class="cls-1" d="M759.75,331.4c.71,0,.71-1.61,0-1.61S759.05,331.4,759.75,331.4Z"/><path class="cls-1" d="M777.1,375.36c.71,0,.71-1.61,0-1.61S776.39,375.36,777.1,375.36Z"/><path class="cls-1" d="M670.12,106.52c.71,0,.71-1.61,0-1.61S669.42,106.52,670.12,106.52Z"/><path class="cls-1" d="M662,161.47c.7,0,.7-1.6,0-1.6S661.32,161.47,662,161.47Z"/><path class="cls-1" d="M688.05,212.19c.7,0,.71-1.6,0-1.6S687.34,212.19,688.05,212.19Z"/><path class="cls-1" d="M744.72,203.74c.7,0,.7-1.6,0-1.6S744,203.74,744.72,203.74Z"/><path class="cls-1" d="M753.39,142.87c.71,0,.71-1.6,0-1.6S752.68,142.87,753.39,142.87Z"/><path class="cls-1" d="M714.65,93c.7,0,.71-1.6,0-1.6S713.94,93,714.65,93Z"/><path class="cls-1" d="M701.93,53.26c.7,0,.7-1.61,0-1.61S701.22,53.26,701.93,53.26Z"/><path class="cls-1" d="M614.61,68.47c.71,0,.71-1.6,0-1.6S613.9,68.47,614.61,68.47Z"/><path class="cls-1" d="M631.38,135.26c.71,0,.71-1.6,0-1.6S630.67,135.26,631.38,135.26Z"/><path class="cls-1" d="M607.67,95.53c.71,0,.71-1.61,0-1.61S607,95.53,607.67,95.53Z"/><path class="cls-1" d="M621,325.48c.71,0,.71-1.61,0-1.61S620.26,325.48,621,325.48Z"/><path class="cls-1" d="M618.08,357.6c.71,0,.71-1.6,0-1.6S617.37,357.6,618.08,357.6Z"/><path class="cls-1" d="M654.51,357.6c.71,0,.71-1.6,0-1.6S653.8,357.6,654.51,357.6Z"/><path class="cls-1" d="M729.68,284.9c.71,0,.71-1.6,0-1.6S729,284.9,729.68,284.9Z"/><path class="cls-1" d="M780.57,240.09c.71,0,.71-1.6,0-1.6S779.86,240.09,780.57,240.09Z"/><path class="cls-1" d="M771.9,143.72c.7,0,.7-1.61,0-1.61S771.19,143.72,771.9,143.72Z"/><path class="cls-1" d="M908.1,189.68c.7,0,.7-1.6,0-1.6S907.39,189.68,908.1,189.68Z"/><path class="cls-1" d="M941.63,260.7c.71,0,.71-1.61,0-1.61S940.93,260.7,941.63,260.7Z"/><path class="cls-1" d="M948.57,84.85c.71,0,.71-1.6,0-1.6S947.87,84.85,948.57,84.85Z"/><path class="cls-1" d="M963,179.54c.71,0,.71-1.61,0-1.61S962.32,179.54,963,179.54Z"/><path class="cls-1" d="M997.73,119.51c.7,0,.7-1.6,0-1.6S997,119.51,997.73,119.51Z"/><path class="cls-1" d="M994.83,49.34c.71,0,.71-1.6,0-1.6S994.13,49.34,994.83,49.34Z"/><path class="cls-1" d="M917.35,5.38c.7,0,.7-1.6,0-1.6S916.64,5.38,917.35,5.38Z"/><path class="cls-1" d="M944,48.5c.7,0,.7-1.6,0-1.6S943.24,48.5,944,48.5Z"/><path class="cls-1" d="M934.7,67.1c.7,0,.7-1.6,0-1.6S934,67.1,934.7,67.1Z"/><path class="cls-1" d="M942.21,89.92c.71,0,.71-1.6,0-1.6S941.51,89.92,942.21,89.92Z"/><path class="cls-1" d="M954.93,77.24c.71,0,.71-1.6,0-1.6S954.23,77.24,954.93,77.24Z"/><path class="cls-1" d="M957.83,118.67c.7,0,.7-1.61,0-1.61S957.12,118.67,957.83,118.67Z"/><path class="cls-1" d="M935.85,111.91c.71,0,.71-1.61,0-1.61S935.15,111.91,935.85,111.91Z"/><path class="cls-1" d="M985.58,232s0,0,0,0Z"/><path class="cls-1" d="M1001.77,308.88c.71,0,.71-1.6,0-1.6S1001.07,308.88,1001.77,308.88Z"/><path class="cls-1" d="M960.14,320.72c.7,0,.71-1.6,0-1.6S959.43,320.72,960.14,320.72Z"/><path class="cls-1" d="M971.13,281.83c.7,0,.7-1.6,0-1.6S970.42,281.83,971.13,281.83Z"/><path class="cls-1" d="M874.56,312.27c.7,0,.7-1.61,0-1.61S873.85,312.27,874.56,312.27Z"/><path class="cls-1" d="M862.41,98.38c.71,0,.71-1.6,0-1.6S861.71,98.38,862.41,98.38Z"/><path class="cls-1" d="M886.7,339.32c.7,0,.7-1.6,0-1.6S886,339.32,886.7,339.32Z"/><path class="cls-1" d="M873.4,414.61h0S873.39,414.61,873.4,414.61Z"/><path class="cls-1" d="M967.65,374.83c.71,0,.71-1.61,0-1.61S966.94,374.83,967.65,374.83Z"/><path class="cls-1" d="M960.71,401.88c.71,0,.71-1.6,0-1.6S960,401.88,960.71,401.88Z"/><path class="cls-1" d="M936.43,344.39c.7,0,.7-1.6,0-1.6S935.72,344.39,936.43,344.39Z"/><path class="cls-1" d="M901.15,389.2c.71,0,.71-1.6,0-1.6S900.45,389.2,901.15,389.2Z"/><path class="cls-1" d="M919.08,433.16c.7,0,.7-1.6,0-1.6S918.37,433.16,919.08,433.16Z"/><path class="cls-1" d="M863.57,428.09c.7,0,.7-1.61,0-1.61S862.86,428.09,863.57,428.09Z"/><path class="cls-1" d="M946.26,330c.7,0,.7-1.6,0-1.6S945.55,330,946.26,330Z"/><path class="cls-1" d="M895.37,400.5c.71,0,.71-1.61,0-1.61S894.67,400.5,895.37,400.5Z"/><path class="cls-1" d="M898.27,332c.7,0,.7-1.6,0-1.6S897.56,332,898.27,332Z"/><path class="cls-1" d="M891.33,359.07c.7,0,.7-1.6,0-1.6S890.62,359.07,891.33,359.07Z"/><path class="cls-1" d="M867,301.58c.71,0,.71-1.6,0-1.6S866.33,301.58,867,301.58Z"/><path class="cls-1" d="M876.87,287.21c.71,0,.71-1.6,0-1.6S876.16,287.21,876.87,287.21Z"/><path class="cls-1" d="M929.49,294.54c.7,0,.7-1.6,0-1.6S928.78,294.54,929.49,294.54Z"/><path class="cls-1" d="M932.38,226.06c.7,0,.7-1.6,0-1.6S931.67,226.06,932.38,226.06Z"/><path class="cls-1" d="M925.44,253.11c.7,0,.71-1.6,0-1.6S924.73,253.11,925.44,253.11Z"/><path class="cls-1" d="M901.15,195.63c.71,0,.71-1.61,0-1.61S900.45,195.63,901.15,195.63Z"/><path class="cls-1" d="M865.88,240.43c.7,0,.71-1.6,0-1.6S865.17,240.43,865.88,240.43Z"/><path class="cls-1" d="M883.8,284.39c.71,0,.71-1.6,0-1.6S883.1,284.39,883.8,284.39Z"/><path class="cls-1" d="M911,181.25c.71,0,.71-1.6,0-1.6S910.28,181.25,911,181.25Z"/><path class="cls-1" d="M930.64,193.12c.71,0,.71-1.6,0-1.6S929.94,193.12,930.64,193.12Z"/><path class="cls-1" d="M933.53,124.64c.71,0,.71-1.6,0-1.6S932.83,124.64,933.53,124.64Z"/><path class="cls-1" d="M926.6,151.7c.7,0,.7-1.61,0-1.61S925.89,151.7,926.6,151.7Z"/><path class="cls-1" d="M902.31,94.21c.7,0,.71-1.61,0-1.61S901.6,94.21,902.31,94.21Z"/><path class="cls-1" d="M867,139c.71,0,.71-1.6,0-1.6S866.33,139,867,139Z"/><path class="cls-1" d="M885,183c.71,0,.71-1.61,0-1.61S884.25,183,885,183Z"/><path class="cls-1" d="M912.14,79.84c.7,0,.71-1.61,0-1.61S911.43,79.84,912.14,79.84Z"/><path class="cls-1" d="M997.73,254c.7,0,.7-1.6,0-1.6S997,254,997.73,254Z"/><path class="cls-1" d="M919.66,150c.71,0,.71-1.61,0-1.61S919,150,919.66,150Z"/><path class="cls-1" d="M906.36,225.3s0,0,0,0Z"/><path class="cls-1" d="M1000.62,185.51c.7,0,.7-1.6,0-1.6S999.91,185.51,1000.62,185.51Z"/><path class="cls-1" d="M993.68,212.57c.7,0,.7-1.61,0-1.61S993,212.57,993.68,212.57Z"/><path class="cls-1" d="M969.39,155.08c.71,0,.71-1.61,0-1.61S968.68,155.08,969.39,155.08Z"/><path class="cls-1" d="M934.12,199.88c.7,0,.7-1.6,0-1.6S933.41,199.88,934.12,199.88Z"/><path class="cls-1" d="M952,243.85c.71,0,.71-1.61,0-1.61S951.34,243.85,952,243.85Z"/><path class="cls-1" d="M920.82,266.67c.7,0,.7-1.6,0-1.6S920.11,266.67,920.82,266.67Z"/><path class="cls-1" d="M896.53,238.77c.71,0,.71-1.6,0-1.6S895.82,238.77,896.53,238.77Z"/><path class="cls-1" d="M979.22,140.71c.71,0,.71-1.61,0-1.61S978.51,140.71,979.22,140.71Z"/><path class="cls-1" d="M974.59,428.93c.71,0,.71-1.6,0-1.6S973.88,428.93,974.59,428.93Z"/><path class="cls-1" d="M896.53,325c.7,0,.7-1.61,0-1.61S895.82,325,896.53,325Z"/><path class="cls-1" d="M883.23,400.24h0S883.22,400.24,883.23,400.24Z"/><path class="cls-1" d="M977.48,360.45c.71,0,.71-1.6,0-1.6S976.77,360.45,977.48,360.45Z"/><path class="cls-1" d="M970.54,387.51c.71,0,.71-1.61,0-1.61S969.84,387.51,970.54,387.51Z"/><path class="cls-1" d="M946.26,330c.7,0,.7-1.6,0-1.6S945.55,330,946.26,330Z"/><path class="cls-1" d="M911,374.83c.71,0,.71-1.61,0-1.61S910.28,374.83,911,374.83Z"/><path class="cls-1" d="M928.91,418.79c.7,0,.7-1.61,0-1.61S928.2,418.79,928.91,418.79Z"/><path class="cls-1" d="M873.4,413.72c.7,0,.7-1.61,0-1.61S872.69,413.72,873.4,413.72Z"/><path class="cls-1" d="M956.09,315.65c.7,0,.7-1.61,0-1.61S955.38,315.65,956.09,315.65Z"/><path class="cls-1" d="M995.41,293.44c.7,0,.7-1.61,0-1.61S994.7,293.44,995.41,293.44Z"/><path class="cls-1" d="M917.34,189.45c.71,0,.71-1.6,0-1.6S916.64,189.45,917.34,189.45Z"/><path class="cls-1" d="M904,264.74s0,0,0,0Z"/><path class="cls-1" d="M998.3,225c.7,0,.71-1.61,0-1.61S997.59,225,998.3,225Z"/><path class="cls-1" d="M991.36,252c.71,0,.71-1.6,0-1.6S990.65,252,991.36,252Z"/><path class="cls-1" d="M967.07,194.52c.71,0,.71-1.6,0-1.6S966.37,194.52,967.07,194.52Z"/><path class="cls-1" d="M931.8,239.33c.71,0,.71-1.6,0-1.6S931.09,239.33,931.8,239.33Z"/><path class="cls-1" d="M949.73,283.29c.7,0,.7-1.6,0-1.6S949,283.29,949.73,283.29Z"/><path class="cls-1" d="M918.5,306.12c.71,0,.71-1.61,0-1.61S917.79,306.12,918.5,306.12Z"/><path class="cls-1" d="M894.21,278.22c.71,0,.71-1.6,0-1.6S893.51,278.22,894.21,278.22Z"/><path class="cls-1" d="M976.9,180.15c.71,0,.71-1.6,0-1.6S976.2,180.15,976.9,180.15Z"/><path class="cls-1" d="M1018.54,247.54c.71,0,.71-1.61,0-1.61S1017.84,247.54,1018.54,247.54Z"/><path class="cls-1" d="M940.48,143.55c.7,0,.7-1.6,0-1.6S939.77,143.55,940.48,143.55Z"/><path class="cls-1" d="M927.18,218.84h0S927.17,218.84,927.18,218.84Z"/><path class="cls-1" d="M1021.43,179.06c.71,0,.71-1.61,0-1.61S1020.73,179.06,1021.43,179.06Z"/><path class="cls-1" d="M1014.49,206.11c.71,0,.71-1.6,0-1.6S1013.79,206.11,1014.49,206.11Z"/><path class="cls-1" d="M990.21,148.62c.7,0,.7-1.6,0-1.6S989.5,148.62,990.21,148.62Z"/><path class="cls-1" d="M954.93,193.43c.71,0,.71-1.6,0-1.6S954.23,193.43,954.93,193.43Z"/><path class="cls-1" d="M972.86,237.39c.71,0,.71-1.6,0-1.6S972.15,237.39,972.86,237.39Z"/><path class="cls-1" d="M941.63,260.22c.71,0,.71-1.61,0-1.61S940.93,260.22,941.63,260.22Z"/><path class="cls-1" d="M917.35,232.32c.7,0,.7-1.61,0-1.61S916.64,232.32,917.35,232.32Z"/><path class="cls-1" d="M1000,134.25c.7,0,.71-1.6,0-1.6S999.33,134.25,1000,134.25Z"/><path class="cls-1" d="M889.88,207.32c.71,0,.71-1.6,0-1.6S889.17,207.32,889.88,207.32Z"/><path class="cls-1" d="M873.11,227.61c.71,0,.71-1.6,0-1.6S872.4,227.61,873.11,227.61Z"/><path class="cls-1" d="M856.92,345.12c.71,0,.71-1.6,0-1.6S856.21,345.12,856.92,345.12Z"/><path class="cls-1" d="M865.59,284.25c.71,0,.71-1.6,0-1.6S864.89,284.25,865.59,284.25Z"/><path class="cls-1" d="M892.77,381.48c.71,0,.71-1.61,0-1.61S892.07,381.48,892.77,381.48Z"/><path class="cls-1" d="M907.23,178.58c.7,0,.71-1.61,0-1.61S906.52,178.58,907.23,178.58Z"/><path class="cls-1" d="M884.1,285.1c.7,0,.71-1.6,0-1.6S883.39,285.1,884.1,285.1Z"/><path class="cls-1" d="M919.75,177.79c.71,0,.71-1.6,0-1.6S919.05,177.79,919.75,177.79Z"/><path class="cls-1" d="M911.85,51.54c.71,0,.71-1.6,0-1.6S911.14,51.54,911.85,51.54Z"/><path class="cls-1" d="M863.28,280.65c.7,0,.7-1.61,0-1.61S862.57,280.65,863.28,280.65Z"/><path class="cls-1" d="M880.62,324.61c.71,0,.71-1.6,0-1.6S879.92,324.61,880.62,324.61Z"/><path class="cls-1" d="M932.09,268.81c.7,0,.71-1.6,0-1.6S931.38,268.81,932.09,268.81Z"/><path class="cls-1" d="M933.24,98.88c.71,0,.71-1.6,0-1.6S932.54,98.88,933.24,98.88Z"/><path class="cls-1" d="M856.92,92.12c.7,0,.7-1.6,0-1.6S856.21,92.12,856.92,92.12Z"/><path class="cls-1" d="M884.09,189.34c.71,0,.71-1.6,0-1.6S883.39,189.34,884.09,189.34Z"/><path class="cls-1" d="M933.82,125.94c.71,0,.71-1.61,0-1.61S933.12,125.94,933.82,125.94Z"/><path class="cls-1" d="M875.42,93c.71,0,.71-1.61,0-1.61S874.71,93,875.42,93Z"/><path class="cls-1" d="M880.91,129.2c.71,0,.71-1.6,0-1.6S880.21,129.2,880.91,129.2Z"/><path class="cls-1" d="M867.61,204.5s0,0,0,0Z"/><path class="cls-1" d="M876.29,321.11c.7,0,.7-1.6,0-1.6S875.58,321.11,876.29,321.11Z"/><path class="cls-1" d="M930.64,134.28c.71,0,.71-1.61,0-1.61S929.94,134.28,930.64,134.28Z"/><path class="cls-1" d="M895.37,179.08c.71,0,.71-1.6,0-1.6S894.66,179.08,895.37,179.08Z"/><path class="cls-1" d="M913.3,223.05c.7,0,.7-1.61,0-1.61S912.59,223.05,913.3,223.05Z"/><path class="cls-1" d="M921.39,305.05c.71,0,.71-1.6,0-1.6S920.68,305.05,921.39,305.05Z"/><path class="cls-1" d="M880.33,356.62c.71,0,.71-1.6,0-1.6S879.63,356.62,880.33,356.62Z"/><path class="cls-1" d="M867.61,276.31c.71,0,.71-1.61,0-1.61S866.91,276.31,867.61,276.31Z"/><path class="cls-1" d="M882.07,245.87c.71,0,.71-1.6,0-1.6S881.36,245.87,882.07,245.87Z"/><path class="cls-1" d="M857.78,218c.71,0,.71-1.6,0-1.6S857.08,218,857.78,218Z"/><path class="cls-1" d="M915.61,366.76c.7,0,.71-1.6,0-1.6S914.9,366.76,915.61,366.76Z"/><path class="cls-1" d="M928.91,436.14v0S928.9,436.14,928.91,436.14Z"/><path class="cls-1" d="M940.47,119.91c.71,0,.71-1.61,0-1.61S939.77,119.91,940.47,119.91Z"/><path class="cls-1" d="M858,102.06h0S858,102.06,858,102.06Z"/><path class="cls-1" d="M863.76,149.4h0S863.75,149.4,863.76,149.4Z"/><path class="cls-1" d="M881.49,179.5c.71,0,.71-1.6,0-1.6S880.78,179.5,881.49,179.5Z"/><path class="cls-1" d="M940.86,65.94c.7,0,.71-1.61,0-1.61S940.15,65.94,940.86,65.94Z"/><path class="cls-1" d="M924.09,86.23c.71,0,.71-1.61,0-1.61S923.38,86.23,924.09,86.23Z"/><path class="cls-1" d="M922.93,331.4c.71,0,.71-1.61,0-1.61S922.23,331.4,922.93,331.4Z"/><path class="cls-1" d="M940.28,375.36c.71,0,.71-1.61,0-1.61S939.57,375.36,940.28,375.36Z"/><path class="cls-1" d="M907.9,203.74c.7,0,.71-1.6,0-1.6S907.19,203.74,907.9,203.74Z"/><path class="cls-1" d="M916.57,142.87c.71,0,.71-1.6,0-1.6S915.87,142.87,916.57,142.87Z"/><path class="cls-1" d="M877.83,93c.7,0,.71-1.6,0-1.6S877.12,93,877.83,93Z"/><path class="cls-1" d="M865.11,53.26c.7,0,.7-1.61,0-1.61S864.4,53.26,865.11,53.26Z"/><path class="cls-1" d="M892.86,284.9c.71,0,.71-1.6,0-1.6S892.16,284.9,892.86,284.9Z"/><path class="cls-1" d="M943.75,240.09c.71,0,.71-1.6,0-1.6S943,240.09,943.75,240.09Z"/><path class="cls-1" d="M935.08,143.72c.7,0,.7-1.61,0-1.61S934.37,143.72,935.08,143.72Z"/><path class="cls-1" d="M688.63,122.58c.7,0,.7-1.6,0-1.6S687.92,122.58,688.63,122.58Z"/><path class="cls-1" d="M381.61,144.25v0S381.6,144.25,381.61,144.25Z"/><path class="cls-1" d="M387.39,191.59s0,0,0,0S387.38,191.59,387.39,191.59Z"/><path class="cls-1" d="M503,270.73c.71,0,.71-1.61,0-1.61S502.33,270.73,503,270.73Z"/><path class="cls-1" d="M405.12,221.69c.71,0,.71-1.6,0-1.6S404.42,221.69,405.12,221.69Z"/><path class="cls-1" d="M495.14,144.48c.7,0,.71-1.6,0-1.6S494.43,144.48,495.14,144.48Z"/><path class="cls-1" d="M349.42,311.87c.7,0,.71-1.6,0-1.6S348.71,311.87,349.42,311.87Z"/><path class="cls-1" d="M446.57,373.58c.7,0,.7-1.6,0-1.6S445.86,373.58,446.57,373.58Z"/><path class="cls-1" d="M463.91,417.55c.71,0,.71-1.61,0-1.61S463.21,417.55,463.91,417.55Z"/><path class="cls-1" d="M515.38,361.75c.7,0,.7-1.6,0-1.6S514.67,361.75,515.38,361.75Z"/><path class="cls-1" d="M516.53,191.82c.71,0,.71-1.6,0-1.6S515.83,191.82,516.53,191.82Z"/><path class="cls-1" d="M356.94,148.71c.7,0,.7-1.61,0-1.61S356.23,148.71,356.94,148.71Z"/><path class="cls-1" d="M348.84,203.66c.71,0,.71-1.61,0-1.61S348.13,203.66,348.84,203.66Z"/><path class="cls-1" d="M374.86,254.38c.71,0,.71-1.6,0-1.6S374.15,254.38,374.86,254.38Z"/><path class="cls-1" d="M431.53,245.93c.71,0,.71-1.61,0-1.61S430.82,245.93,431.53,245.93Z"/><path class="cls-1" d="M440.2,185.06c.71,0,.71-1.6,0-1.6S439.5,185.06,440.2,185.06Z"/><path class="cls-1" d="M416.5,327.09c.7,0,.7-1.61,0-1.61S415.79,327.09,416.5,327.09Z"/><path class="cls-1" d="M467.38,282.28c.71,0,.71-1.6,0-1.6S466.68,282.28,467.38,282.28Z"/><path class="cls-1" d="M517.11,218.88c.71,0,.71-1.61,0-1.61S516.41,218.88,517.11,218.88Z"/><path class="cls-1" d="M458.71,185.9c.7,0,.71-1.6,0-1.6S458,185.9,458.71,185.9Z"/><path class="cls-1" d="M375.44,164.77c.71,0,.71-1.6,0-1.6S374.73,164.77,375.44,164.77Z"/><path class="cls-1" d="M347,423.89c.71,0,.71-1.61,0-1.61S346.24,423.89,347,423.89Z"/><path class="cls-1" d="M361.41,221c.7,0,.7-1.6,0-1.6S360.7,221,361.41,221Z"/><path class="cls-1" d="M464.2,222.14c.71,0,.71-1.6,0-1.6S463.5,222.14,464.2,222.14Z"/><path class="cls-1" d="M450.9,297.43s0,0,0,0Z"/><path class="cls-1" d="M459.58,414.05c.7,0,.7-1.6,0-1.6S458.87,414.05,459.58,414.05Z"/><path class="cls-1" d="M513.93,227.21c.71,0,.71-1.6,0-1.6S513.23,227.21,513.93,227.21Z"/><path class="cls-1" d="M478.66,272c.7,0,.71-1.6,0-1.6S478,272,478.66,272Z"/><path class="cls-1" d="M496.58,316c.71,0,.71-1.6,0-1.6S495.88,316,496.58,316Z"/><path class="cls-1" d="M504.68,398c.71,0,.71-1.61,0-1.61S504,398,504.68,398Z"/><path class="cls-1" d="M463.62,449.56c.71,0,.71-1.61,0-1.61S462.92,449.56,463.62,449.56Z"/><path class="cls-1" d="M426.62,430.11c.7,0,.7-1.6,0-1.6S425.91,430.11,426.62,430.11Z"/><path class="cls-1" d="M418.52,333.74c.71,0,.71-1.61,0-1.61S417.81,333.74,418.52,333.74Z"/><path class="cls-1" d="M450.9,369.24c.71,0,.71-1.6,0-1.6S450.2,369.24,450.9,369.24Z"/><path class="cls-1" d="M465.36,338.81c.7,0,.71-1.6,0-1.6S464.65,338.81,465.36,338.81Z"/><path class="cls-1" d="M441.07,310.91c.71,0,.71-1.6,0-1.6S440.36,310.91,441.07,310.91Z"/><path class="cls-1" d="M412.74,214.53c.7,0,.7-1.6,0-1.6S412,214.53,412.74,214.53Z"/><path class="cls-1" d="M405.8,272.07h0S405.79,272.07,405.8,272.07Z"/><path class="cls-1" d="M498.9,459.7c.7,0,.7-1.6,0-1.6S498.19,459.7,498.9,459.7Z"/><path class="cls-1" d="M512.2,529.08v0S512.19,529.08,512.2,529.08Z"/><path class="cls-1" d="M523.76,212.84c.71,0,.71-1.6,0-1.6S523.06,212.84,523.76,212.84Z"/><path class="cls-1" d="M441.26,195s0,0,0,0Z"/><path class="cls-1" d="M447.05,242.34h0S447,242.34,447.05,242.34Z"/><path class="cls-1" d="M464.78,272.44c.71,0,.71-1.6,0-1.6S464.07,272.44,464.78,272.44Z"/><path class="cls-1" d="M358.19,229.89c.7,0,.71-1.6,0-1.6S357.48,229.89,358.19,229.89Z"/><path class="cls-1" d="M370.91,324.58c.71,0,.71-1.61,0-1.61S370.2,324.58,370.91,324.58Z"/><path class="cls-1" d="M524.15,158.88c.7,0,.7-1.61,0-1.61S523.44,158.88,524.15,158.88Z"/><path class="cls-1" d="M507.38,179.17c.7,0,.71-1.61,0-1.61S506.67,179.17,507.38,179.17Z"/><path class="cls-1" d="M409.07,362.62c.71,0,.71-1.6,0-1.6S408.37,362.62,409.07,362.62Z"/><path class="cls-1" d="M506.22,424.33c.71,0,.71-1.6,0-1.6S505.51,424.33,506.22,424.33Z"/><path class="cls-1" d="M523.57,468.29c.71,0,.71-1.6,0-1.6S522.86,468.29,523.57,468.29Z"/><path class="cls-1" d="M416.59,199.46c.71,0,.71-1.61,0-1.61S415.89,199.46,416.59,199.46Z"/><path class="cls-1" d="M408.5,254.41c.7,0,.7-1.61,0-1.61S407.79,254.41,408.5,254.41Z"/><path class="cls-1" d="M434.52,305.13c.7,0,.7-1.6,0-1.6S433.81,305.13,434.52,305.13Z"/><path class="cls-1" d="M491.19,296.68c.7,0,.7-1.61,0-1.61S490.48,296.68,491.19,296.68Z"/><path class="cls-1" d="M499.86,235.81c.71,0,.71-1.61,0-1.61S499.15,235.81,499.86,235.81Z"/><path class="cls-1" d="M461.12,185.93c.7,0,.7-1.6,0-1.6S460.41,185.93,461.12,185.93Z"/><path class="cls-1" d="M448.4,146.19c.7,0,.7-1.6,0-1.6S447.69,146.19,448.4,146.19Z"/><path class="cls-1" d="M361.08,161.41c.71,0,.71-1.6,0-1.6S360.37,161.41,361.08,161.41Z"/><path class="cls-1" d="M377.85,228.2c.7,0,.71-1.6,0-1.6S377.14,228.2,377.85,228.2Z"/><path class="cls-1" d="M354.14,188.46c.71,0,.71-1.6,0-1.6S353.43,188.46,354.14,188.46Z"/><path class="cls-1" d="M367.44,418.42c.71,0,.71-1.61,0-1.61S366.73,418.42,367.44,418.42Z"/><path class="cls-1" d="M364.55,450.54c.7,0,.71-1.6,0-1.6S363.84,450.54,364.55,450.54Z"/><path class="cls-1" d="M401,450.54c.71,0,.71-1.6,0-1.6S400.27,450.54,401,450.54Z"/><path class="cls-1" d="M476.15,377.84c.71,0,.71-1.61,0-1.61S475.45,377.84,476.15,377.84Z"/><path class="cls-1" d="M527,333c.7,0,.71-1.6,0-1.6S526.33,333,527,333Z"/><path class="cls-1" d="M518.37,236.65c.7,0,.7-1.6,0-1.6S517.66,236.65,518.37,236.65Z"/><path class="cls-1" d="M435.1,215.52c.7,0,.7-1.61,0-1.61S434.39,215.52,435.1,215.52Z"/><path class="cls-1" d="M272.58,127s0,0,0,0Z"/><path class="cls-1" d="M278.37,174.29h0S278.36,174.29,278.37,174.29Z"/><path class="cls-1" d="M394,253.43c.7,0,.7-1.61,0-1.61S393.31,253.43,394,253.43Z"/><path class="cls-1" d="M296.1,204.39c.7,0,.71-1.6,0-1.6S295.39,204.39,296.1,204.39Z"/><path class="cls-1" d="M386.11,127.18c.71,0,.71-1.6,0-1.6S385.41,127.18,386.11,127.18Z"/><path class="cls-1" d="M240.39,294.57c.71,0,.71-1.6,0-1.6S239.69,294.57,240.39,294.57Z"/><path class="cls-1" d="M337.54,356.28c.71,0,.71-1.6,0-1.6S336.83,356.28,337.54,356.28Z"/><path class="cls-1" d="M354.89,400.25c.7,0,.7-1.61,0-1.61S354.18,400.25,354.89,400.25Z"/><path class="cls-1" d="M406.35,344.45c.71,0,.71-1.6,0-1.6S405.65,344.45,406.35,344.45Z"/><path class="cls-1" d="M407.51,174.52c.7,0,.71-1.6,0-1.6S406.8,174.52,407.51,174.52Z"/><path class="cls-1" d="M247.91,131.41c.71,0,.71-1.61,0-1.61S247.2,131.41,247.91,131.41Z"/><path class="cls-1" d="M239.82,186.36c.7,0,.7-1.61,0-1.61S239.11,186.36,239.82,186.36Z"/><path class="cls-1" d="M265.84,237.08c.7,0,.7-1.6,0-1.6S265.13,237.08,265.84,237.08Z"/><path class="cls-1" d="M322.51,228.63c.7,0,.7-1.6,0-1.6S321.8,228.63,322.51,228.63Z"/><path class="cls-1" d="M331.18,167.76c.71,0,.71-1.6,0-1.6S330.47,167.76,331.18,167.76Z"/><path class="cls-1" d="M307.47,309.79c.71,0,.71-1.61,0-1.61S306.76,309.79,307.47,309.79Z"/><path class="cls-1" d="M358.36,265c.7,0,.7-1.6,0-1.6S357.65,265,358.36,265Z"/><path class="cls-1" d="M408.09,201.58c.7,0,.7-1.61,0-1.61S407.38,201.58,408.09,201.58Z"/><path class="cls-1" d="M349.68,168.6c.71,0,.71-1.6,0-1.6S349,168.6,349.68,168.6Z"/><path class="cls-1" d="M266.41,147.47c.71,0,.71-1.6,0-1.6S265.71,147.47,266.41,147.47Z"/><path class="cls-1" d="M237.93,406.59c.7,0,.7-1.61,0-1.61S237.22,406.59,237.93,406.59Z"/><path class="cls-1" d="M252.38,203.69c.71,0,.71-1.6,0-1.6S251.68,203.69,252.38,203.69Z"/><path class="cls-1" d="M355.18,204.84c.7,0,.7-1.6,0-1.6S354.47,204.84,355.18,204.84Z"/><path class="cls-1" d="M341.88,280.13h0S341.87,280.13,341.88,280.13Z"/><path class="cls-1" d="M350.55,396.75c.71,0,.71-1.6,0-1.6S349.84,396.75,350.55,396.75Z"/><path class="cls-1" d="M404.91,209.92c.7,0,.7-1.61,0-1.61S404.2,209.92,404.91,209.92Z"/><path class="cls-1" d="M369.63,254.72c.71,0,.71-1.6,0-1.6S368.93,254.72,369.63,254.72Z"/><path class="cls-1" d="M387.56,298.68c.71,0,.71-1.6,0-1.6S386.85,298.68,387.56,298.68Z"/><path class="cls-1" d="M395.65,380.69c.71,0,.71-1.61,0-1.61S395,380.69,395.65,380.69Z"/><path class="cls-1" d="M354.6,432.26c.7,0,.71-1.61,0-1.61S353.89,432.26,354.6,432.26Z"/><path class="cls-1" d="M317.59,412.81c.71,0,.71-1.6,0-1.6S316.88,412.81,317.59,412.81Z"/><path class="cls-1" d="M309.49,316.44c.71,0,.71-1.61,0-1.61S308.79,316.44,309.49,316.44Z"/><path class="cls-1" d="M341.88,351.94c.7,0,.7-1.6,0-1.6S341.17,351.94,341.88,351.94Z"/><path class="cls-1" d="M356.33,321.51c.71,0,.71-1.6,0-1.6S355.63,321.51,356.33,321.51Z"/><path class="cls-1" d="M332.05,293.61c.7,0,.7-1.6,0-1.6S331.34,293.61,332.05,293.61Z"/><path class="cls-1" d="M303.71,197.23c.71,0,.71-1.6,0-1.6S303,197.23,303.71,197.23Z"/><path class="cls-1" d="M296.77,254.77s0,0,0,0Z"/><path class="cls-1" d="M389.87,442.4c.71,0,.71-1.6,0-1.6S389.17,442.4,389.87,442.4Z"/><path class="cls-1" d="M403.17,511.78s0,0,0,0Z"/><path class="cls-1" d="M414.74,195.54c.7,0,.7-1.6,0-1.6S414,195.54,414.74,195.54Z"/><path class="cls-1" d="M332.24,177.7s0,0,0,0S332.23,177.7,332.24,177.7Z"/><path class="cls-1" d="M338,225s0,0,0,0Z"/><path class="cls-1" d="M355.76,255.14c.7,0,.7-1.6,0-1.6S355.05,255.14,355.76,255.14Z"/><path class="cls-1" d="M249.16,212.59c.71,0,.71-1.6,0-1.6S248.46,212.59,249.16,212.59Z"/><path class="cls-1" d="M261.89,307.28c.7,0,.7-1.61,0-1.61S261.18,307.28,261.89,307.28Z"/><path class="cls-1" d="M415.12,141.58c.71,0,.71-1.61,0-1.61S414.42,141.58,415.12,141.58Z"/><path class="cls-1" d="M398.35,161.87c.71,0,.71-1.61,0-1.61S397.65,161.87,398.35,161.87Z"/><path class="cls-1" d="M300.05,345.32c.71,0,.71-1.6,0-1.6S299.34,345.32,300.05,345.32Z"/><path class="cls-1" d="M397.2,407c.7,0,.7-1.6,0-1.6S396.49,407,397.2,407Z"/><path class="cls-1" d="M414.54,451c.71,0,.71-1.6,0-1.6S413.84,451,414.54,451Z"/><path class="cls-1" d="M307.57,182.16c.7,0,.7-1.61,0-1.61S306.86,182.16,307.57,182.16Z"/><path class="cls-1" d="M299.47,237.11c.71,0,.71-1.61,0-1.61S298.76,237.11,299.47,237.11Z"/><path class="cls-1" d="M325.49,287.83c.71,0,.71-1.6,0-1.6S324.79,287.83,325.49,287.83Z"/><path class="cls-1" d="M382.16,279.38c.71,0,.71-1.61,0-1.61S381.46,279.38,382.16,279.38Z"/><path class="cls-1" d="M390.84,218.51c.7,0,.7-1.61,0-1.61S390.13,218.51,390.84,218.51Z"/><path class="cls-1" d="M352.09,168.63c.71,0,.71-1.6,0-1.6S351.39,168.63,352.09,168.63Z"/><path class="cls-1" d="M339.37,128.89c.71,0,.71-1.6,0-1.6S338.66,128.89,339.37,128.89Z"/><path class="cls-1" d="M252.05,144.11c.71,0,.71-1.6,0-1.6S251.35,144.11,252.05,144.11Z"/><path class="cls-1" d="M268.82,210.9c.71,0,.71-1.6,0-1.6S268.12,210.9,268.82,210.9Z"/><path class="cls-1" d="M245.12,171.16c.7,0,.7-1.6,0-1.6S244.41,171.16,245.12,171.16Z"/><path class="cls-1" d="M258.42,401.12c.7,0,.7-1.61,0-1.61S257.71,401.12,258.42,401.12Z"/><path class="cls-1" d="M255.52,433.24c.71,0,.71-1.6,0-1.6S254.82,433.24,255.52,433.24Z"/><path class="cls-1" d="M292,433.24c.71,0,.71-1.6,0-1.6S291.25,433.24,292,433.24Z"/><path class="cls-1" d="M367.13,360.54c.7,0,.7-1.61,0-1.61S366.42,360.54,367.13,360.54Z"/><path class="cls-1" d="M418,315.73c.71,0,.71-1.6,0-1.6S417.31,315.73,418,315.73Z"/><path class="cls-1" d="M409.34,219.35c.71,0,.71-1.6,0-1.6S408.63,219.35,409.34,219.35Z"/><path class="cls-1" d="M326.07,198.22c.71,0,.71-1.61,0-1.61S325.36,198.22,326.07,198.22Z"/><path class="cls-1" d="M429.86,64.59c.71,0,.71-1.61,0-1.61S429.16,64.59,429.86,64.59Z"/><path class="cls-1" d="M358.16,68.81c.71,0,.71-1.6,0-1.6S357.45,68.81,358.16,68.81Z"/></g></g></svg>